Alegreya Sans SC-ExtraBold Italic.ufo
<glyph name="dollar" format="1">
  <advance width="455"/>
  <unicode hex="0024"/>
  <outline>
    <contour>
      <point x="169" y="64" type="line"/>
      <point x="149" y="-125" type="line"/>
      <point x="159" y="-136" type="line"/>
      <point x="236" y="-136" type="line"/>
      <point x="258" y="64" type="line"/>
    </contour>
    <contour>
      <point x="238" y="644" type="line"/>
      <point x="216" y="443" type="line"/>
      <point x="304" y="443" type="line"/>
      <point x="326" y="631" type="line"/>
      <point x="314" y="644" type="line"/>
    </contour>
    <component base="s" xOffset="-1"/>
  </outline>
</glyph>
<glyph name="parenleft" format="1">
  <advance width="300"/>
  <unicode hex="0028"/>
  <outline>
    <contour>
      <point x="274" y="660" type="line"/>
      <point x="98" y="541"/>
      <point x="57" y="313"/>
      <point x="57" y="150" type="curve" smooth="yes"/>
      <point x="57" y="17"/>
      <point x="93" y="-71"/>
      <point x="176" y="-138" type="curve"/>
      <point x="190" y="-138" type="line"/>
      <point x="251" y="-92" type="line"/>
      <point x="252" y="-80" type="line"/>
      <point x="201" y="-25"/>
      <point x="181" y="44"/>
      <point x="181" y="145" type="curve" smooth="yes"/>
      <point x="181" y="268"/>
      <point x="208" y="492"/>
      <point x="336" y="601" type="curve"/>
      <point x="338" y="614" type="line"/>
      <point x="288" y="660" type="line"/>
    </contour>
  </outline>
</glyph>
<glyph name="asterisk" format="1">
  <advance width="387"/>
  <unicode hex="002A"/>
  <outline>
    <contour>
      <point x="87" y="453" type="line"/>
      <point x="86" y="443" type="line"/>
      <point x="111" y="427"/>
      <point x="138" y="413"/>
      <point x="164" y="405" type="curve"/>
      <point x="226" y="503" type="line"/>
      <point x="224" y="513" type="line"/>
      <point x="184" y="534" type="line"/>
    </contour>
    <contour>
      <point x="80" y="668" type="line"/>
      <point x="72" y="640"/>
      <point x="68" y="609"/>
      <point x="69" y="583" type="curve"/>
      <point x="178" y="552" type="line"/>
      <point x="188" y="557" type="line"/>
      <point x="195" y="602" type="line"/>
      <point x="91" y="671" type="line"/>
    </contour>
    <contour>
      <point x="244" y="505" type="line"/>
      <point x="289" y="384" type="line"/>
      <point x="298" y="381" type="line"/>
      <point x="321" y="400"/>
      <point x="342" y="419"/>
      <point x="358" y="442" type="curve"/>
      <point x="288" y="534" type="line"/>
      <point x="277" y="535" type="line"/>
    </contour>
    <contour>
      <point x="259" y="745"/>
      <point x="229" y="740"/>
      <point x="204" y="731" type="curve"/>
      <point x="209" y="614" type="line"/>
      <point x="216" y="607" type="line"/>
      <point x="262" y="612" type="line"/>
      <point x="293" y="736" type="line"/>
      <point x="289" y="745" type="line"/>
    </contour>
    <contour>
      <point x="276" y="603" type="line"/>
      <point x="271" y="593" type="line"/>
      <point x="291" y="552" type="line"/>
      <point x="416" y="560" type="line"/>
      <point x="422" y="567" type="line"/>
      <point x="412" y="595"/>
      <point x="398" y="622"/>
      <point x="383" y="643" type="curve"/>
    </contour>
  </outline>
</glyph>
<glyph name="zero" format="1">
  <advance width="522"/>
  <unicode hex="0030"/>
  <outline>
    <contour>
      <point x="133" y="517"/>
      <point x="35" y="388"/>
      <point x="35" y="213" type="curve" smooth="yes"/>
      <point x="35" y="64"/>
      <point x="106" y="-10"/>
      <point x="231" y="-10" type="curve" smooth="yes"/>
      <point x="395" y="-10"/>
      <point x="492" y="116"/>
      <point x="492" y="294" type="curve" smooth="yes"/>
      <point x="492" y="446"/>
      <point x="421" y="517"/>
      <point x="298" y="517" type="curve" smooth="yes"/>
    </contour>
    <contour>
      <point x="342" y="373"/>
      <point x="369" y="341"/>
      <point x="369" y="266" type="curve" smooth="yes"/>
      <point x="369" y="177"/>
      <point x="331" y="126"/>
      <point x="248" y="126" type="curve" smooth="yes"/>
      <point x="180" y="126"/>
      <point x="157" y="161"/>
      <point x="157" y="233" type="curve" smooth="yes"/>
      <point x="157" y="321"/>
      <point x="190" y="373"/>
      <point x="276" y="373" type="curve" smooth="yes"/>
    </contour>
  </outline>
</glyph>
<glyph name="two" format="1">
  <advance width="478"/>
  <unicode hex="0032"/>
  <outline>
    <contour>
      <point x="199" y="515"/>
      <point x="131" y="490"/>
      <point x="62" y="448" type="curve"/>
      <point x="72" y="327" type="line"/>
      <point x="89" y="327" type="line"/>
      <point x="134" y="362"/>
      <point x="187" y="384"/>
      <point x="227" y="384" type="curve" smooth="yes"/>
      <point x="257" y="384"/>
      <point x="271" y="370"/>
      <point x="271" y="351" type="curve" smooth="yes"/>
      <point x="271" y="320"/>
      <point x="231" y="281"/>
      <point x="165" y="223" type="curve" smooth="yes"/>
      <point x="20" y="98" type="line"/>
      <point x="8" y="3" type="line"/>
      <point x="15" y="-3" type="line"/>
      <point x="52" y="0" type="line"/>
      <point x="280" y="0" type="line"/>
      <point x="409" y="-7" type="line"/>
      <point x="442" y="117" type="line"/>
      <point x="434" y="127" type="line"/>
      <point x="341" y="118" type="line"/>
      <point x="228" y="118" type="line" smooth="yes"/>
      <point x="225" y="123" type="line"/>
      <point x="291" y="188" type="line" smooth="yes"/>
      <point x="392" y="286"/>
      <point x="431" y="337"/>
      <point x="431" y="392" type="curve" smooth="yes"/>
      <point x="431" y="471"/>
      <point x="360" y="515"/>
      <point x="268" y="515" type="curve" smooth="yes"/>
    </contour>
  </outline>
</glyph>
<glyph name="four" format="1">
  <advance width="512"/>
  <unicode hex="0034"/>
  <outline>
    <contour>
      <point x="294" y="509" type="line"/>
      <point x="10" y="156" type="line"/>
      <point x="-2" y="57" type="line"/>
      <point x="6" y="44" type="line"/>
      <point x="103" y="48" type="line"/>
      <point x="339" y="48" type="line"/>
      <point x="457" y="44" type="line"/>
      <point x="478" y="153" type="line"/>
      <point x="470" y="166" type="line"/>
      <point x="146" y="166" type="line"/>
      <point x="282" y="335" type="line"/>
      <point x="292" y="335" type="line"/>
      <point x="267" y="136" type="line"/>
      <point x="232" y="-86" type="line"/>
      <point x="239" y="-96" type="line"/>
      <point x="361" y="-88" type="line"/>
      <point x="370" y="-77" type="line"/>
      <point x="385" y="107" type="line"/>
      <point x="437" y="509" type="line"/>
    </contour>
  </outline>
</glyph>
<glyph name="eight" format="1">
  <advance width="502"/>
  <unicode hex="0038"/>
  <outline>
    <contour>
      <point x="161" y="596"/>
      <point x="77" y="524"/>
      <point x="77" y="419" type="curve" smooth="yes"/>
      <point x="77" y="351"/>
      <point x="110" y="315"/>
      <point x="153" y="289" type="curve"/>
      <point x="152" y="282" type="line"/>
      <point x="77" y="252"/>
      <point x="29" y="212"/>
      <point x="29" y="136" type="curve" smooth="yes"/>
      <point x="29" y="48"/>
      <point x="106" y="-10"/>
      <point x="233" y="-10" type="curve" smooth="yes"/>
      <point x="367" y="-10"/>
      <point x="454" y="64"/>
      <point x="454" y="170" type="curve" smooth="yes"/>
      <point x="454" y="241"/>
      <point x="416" y="276"/>
      <point x="366" y="305" type="curve"/>
      <point x="367" y="312" type="line"/>
      <point x="426" y="344"/>
      <point x="468" y="388"/>
      <point x="468" y="455" type="curve" smooth="yes"/>
      <point x="468" y="542"/>
      <point x="401" y="596"/>
      <point x="289" y="596" type="curve" smooth="yes"/>
    </contour>
    <contour>
      <point x="289" y="221"/>
      <point x="326" y="202"/>
      <point x="326" y="161" type="curve" smooth="yes"/>
      <point x="326" y="125"/>
      <point x="294" y="93"/>
      <point x="236" y="93" type="curve" smooth="yes"/>
      <point x="185" y="93"/>
      <point x="159" y="117"/>
      <point x="159" y="159" type="curve" smooth="yes"/>
      <point x="159" y="203"/>
      <point x="191" y="223"/>
      <point x="239" y="241" type="curve"/>
    </contour>
    <contour>
      <point x="322" y="490"/>
      <point x="344" y="470"/>
      <point x="344" y="435" type="curve" smooth="yes"/>
      <point x="344" y="397"/>
      <point x="317" y="372"/>
      <point x="279" y="350" type="curve"/>
      <point x="234" y="368"/>
      <point x="204" y="387"/>
      <point x="204" y="427" type="curve" smooth="yes"/>
      <point x="204" y="463"/>
      <point x="232" y="490"/>
      <point x="280" y="490" type="curve" smooth="yes"/>
    </contour>
  </outline>
</glyph>
<glyph name="G" format="1">
  <advance width="590"/>
  <unicode hex="0047"/>
  <outline>
    <contour>
      <point x="165" y="654"/>
      <point x="31" y="510"/>
      <point x="31" y="254" type="curve" smooth="yes"/>
      <point x="31" y="88"/>
      <point x="127" y="-10"/>
      <point x="308" y="-10" type="curve" smooth="yes"/>
      <point x="380" y="-10"/>
      <point x="445" y="3"/>
      <point x="524" y="32" type="curve"/>
      <point x="543" y="196" type="line"/>
      <point x="556" y="283" type="line"/>
      <point x="409" y="273" type="line"/>
      <point x="399" y="170" type="line"/>
      <point x="392" y="123" type="line"/>
      <point x="365" y="116"/>
      <point x="349" y="112"/>
      <point x="327" y="112" type="curve" smooth="yes"/>
      <point x="236" y="112"/>
      <point x="197" y="152"/>
      <point x="197" y="258" type="curve" smooth="yes"/>
      <point x="197" y="464"/>
      <point x="262" y="526"/>
      <point x="375" y="526" type="curve" smooth="yes"/>
      <point x="434" y="526"/>
      <point x="476" y="510"/>
      <point x="534" y="476" type="curve"/>
      <point x="548" y="476" type="line"/>
      <point x="600" y="619" type="line"/>
      <point x="547" y="642"/>
      <point x="478" y="654"/>
      <point x="410" y="654" type="curve" smooth="yes"/>
    </contour>
    <contour>
      <point x="319" y="0" type="move" name="bottom"/>
    </contour>
    <contour>
      <point x="367" y="645" type="move" name="top"/>
    </contour>
  </outline>
</glyph>
<glyph name="L" format="1">
  <advance width="434"/>
  <unicode hex="004C"/>
  <outline>
    <contour>
      <point x="118" y="645" type="line"/>
      <point x="70" y="191" type="line"/>
      <point x="38" y="0" type="line"/>
      <point x="197" y="0" type="line"/>
      <point x="216" y="206" type="line"/>
      <point x="279" y="645" type="line"/>
    </contour>
    <contour>
      <point x="152" y="131" type="line"/>
      <point x="136" y="10" type="line"/>
      <point x="136" y="0" type="line"/>
      <point x="394" y="0" type="line"/>
      <point x="419" y="119" type="line"/>
      <point x="412" y="131" type="line"/>
    </contour>
    <contour>
      <point x="208" y="0" type="move" name="bottom"/>
    </contour>
    <contour>
      <point x="195" y="645" type="move" name="top"/>
    </contour>
  </outline>
</glyph>
<glyph name="Q" format="1">
  <advance width="644"/>
  <unicode hex="0051"/>
  <outline>
    <contour>
      <point x="155" y="655"/>
      <point x="32" y="499"/>
      <point x="32" y="268" type="curve" smooth="yes"/>
      <point x="32" y="82"/>
      <point x="129" y="-11"/>
      <point x="289" y="-11" type="curve" smooth="yes"/>
      <point x="510" y="-11"/>
      <point x="633" y="149"/>
      <point x="633" y="380" type="curve" smooth="yes"/>
      <point x="633" y="565"/>
      <point x="537" y="655"/>
      <point x="375" y="655" type="curve" smooth="yes"/>
    </contour>
    <contour>
      <point x="280" y="7" type="line"/>
      <point x="369" y="-83"/>
      <point x="478" y="-154"/>
      <point x="598" y="-205" type="curve"/>
      <point x="610" y="-200" type="line"/>
      <point x="644" y="-172"/>
      <point x="670" y="-139"/>
      <point x="694" y="-99" type="curve"/>
      <point x="690" y="-83" type="line"/>
      <point x="582" y="-53"/>
      <point x="484" y="-5"/>
      <point x="395" y="58" type="curve"/>
    </contour>
    <contour>
      <point x="437" y="527"/>
      <point x="465" y="482"/>
      <point x="465" y="369" type="curve" smooth="yes"/>
      <point x="465" y="172"/>
      <point x="405" y="109"/>
      <point x="307" y="109" type="curve" smooth="yes"/>
      <point x="225" y="109"/>
      <point x="197" y="155"/>
      <point x="197" y="269" type="curve" smooth="yes"/>
      <point x="197" y="465"/>
      <point x="255" y="527"/>
      <point x="355" y="527" type="curve" smooth="yes"/>
    </contour>
  </outline>
</glyph>
<glyph name="R" format="1">
  <advance width="596"/>
  <unicode hex="0052"/>
  <outline>
    <contour>
      <point x="122" y="645" type="line"/>
      <point x="199" y="525" type="line"/>
      <point x="321" y="532" type="line"/>
      <point x="381" y="529"/>
      <point x="410" y="505"/>
      <point x="410" y="453" type="curve" smooth="yes"/>
      <point x="410" y="388"/>
      <point x="384" y="346"/>
      <point x="324" y="324" type="curve"/>
      <point x="140" y="333" type="line"/>
      <point x="124" y="209" type="line"/>
      <point x="325" y="209" type="line"/>
      <point x="479" y="242"/>
      <point x="579" y="347"/>
      <point x="579" y="479" type="curve" smooth="yes"/>
      <point x="579" y="586"/>
      <point x="502" y="646"/>
      <point x="379" y="646" type="curve"/>
    </contour>
    <contour>
      <point x="122" y="645" type="line"/>
      <point x="74" y="191" type="line"/>
      <point x="42" y="0" type="line"/>
      <point x="201" y="0" type="line"/>
      <point x="220" y="206" type="line"/>
      <point x="283" y="645" type="line"/>
    </contour>
    <contour>
      <point x="279" y="286" type="line"/>
      <point x="308" y="189"/>
      <point x="345" y="94"/>
      <point x="382" y="2" type="curve"/>
      <point x="396" y="-11" type="line"/>
      <point x="450" y="-7"/>
      <point x="504" y="3"/>
      <point x="557" y="20" type="curve"/>
      <point x="561" y="37" type="line"/>
      <point x="510" y="119"/>
      <point x="465" y="203"/>
      <point x="423" y="288" type="curve"/>
    </contour>
    <contour>
      <point x="270" y="0" type="move" name="bottom"/>
    </contour>
    <contour>
      <point x="349" y="645" type="move" name="top"/>
    </contour>
  </outline>
</glyph>
<glyph name="S" format="1">
  <advance width="502"/>
  <unicode hex="0053"/>
  <outline>
    <contour>
      <point x="180" y="655"/>
      <point x="68" y="559"/>
      <point x="68" y="436" type="curve" smooth="yes"/>
      <point x="68" y="261"/>
      <point x="309" y="262"/>
      <point x="309" y="169" type="curve" smooth="yes"/>
      <point x="309" y="138"/>
      <point x="282" y="109"/>
      <point x="228" y="109" type="curve" smooth="yes"/>
      <point x="182" y="109"/>
      <point x="113" y="133"/>
      <point x="60" y="182" type="curve"/>
      <point x="43" y="173" type="line"/>
      <point x="4" y="30" type="line"/>
      <point x="68" y="4"/>
      <point x="138" y="-10"/>
      <point x="201" y="-10" type="curve" smooth="yes"/>
      <point x="361" y="-10"/>
      <point x="471" y="88"/>
      <point x="471" y="207" type="curve" smooth="yes"/>
      <point x="471" y="380"/>
      <point x="227" y="386"/>
      <point x="227" y="473" type="curve" smooth="yes"/>
      <point x="227" y="504"/>
      <point x="257" y="531"/>
      <point x="305" y="531" type="curve" smooth="yes"/>
      <point x="342" y="531"/>
      <point x="393" y="512"/>
      <point x="439" y="478" type="curve"/>
      <point x="463" y="488" type="line"/>
      <point x="503" y="621" type="line"/>
      <point x="442" y="646"/>
      <point x="380" y="655"/>
      <point x="333" y="655" type="curve" smooth="yes"/>
    </contour>
    <contour>
      <point x="223" y="0" type="move" name="bottom"/>
    </contour>
    <contour>
      <point x="305" y="645" type="move" name="top"/>
    </contour>
  </outline>
</glyph>
<glyph name="V" format="1">
  <advance width="588"/>
  <unicode hex="0056"/>
  <outline>
    <contour>
      <point x="484" y="645" type="line"/>
      <point x="453" y="543" type="line"/>
      <point x="286" y="145" type="line"/>
      <point x="276" y="145" type="line"/>
      <point x="224" y="552" type="line"/>
      <point x="219" y="645" type="line"/>
      <point x="58" y="645" type="line"/>
      <point x="165" y="0" type="line"/>
      <point x="355" y="0" type="line"/>
      <point x="639" y="645" type="line"/>
    </contour>
  </outline>
</glyph>
<glyph name="W" format="1">
  <advance width="892"/>
  <unicode hex="0057"/>
  <outline>
    <contour>
      <point x="793" y="645" type="line"/>
      <point x="764" y="549" type="line"/>
      <point x="609" y="162" type="line"/>
      <point x="600" y="162" type="line"/>
      <point x="551" y="542" type="line"/>
      <point x="550" y="645" type="line"/>
      <point x="388" y="645" type="line"/>
      <point x="409" y="491" type="line"/>
      <point x="276" y="162" type="line"/>
      <point x="266" y="162" type="line"/>
      <point x="223" y="558" type="line"/>
      <point x="224" y="645" type="line"/>
      <point x="69" y="645" type="line"/>
      <point x="155" y="0" type="line"/>
      <point x="324" y="0" type="line"/>
      <point x="438" y="281" type="line"/>
      <point x="447" y="281" type="line"/>
      <point x="493" y="0" type="line"/>
      <point x="660" y="0" type="line"/>
      <point x="940" y="645" type="line"/>
    </contour>
    <contour>
      <point x="476" y="645" type="move" name="top"/>
    </contour>
  </outline>
</glyph>
<glyph name="Y" format="1">
  <advance width="563"/>
  <unicode hex="0059"/>
  <outline>
    <contour>
      <point x="459" y="645" type="line"/>
      <point x="433" y="592" type="line"/>
      <point x="301" y="370" type="line"/>
      <point x="290" y="370" type="line"/>
      <point x="225" y="597" type="line"/>
      <point x="216" y="645" type="line"/>
      <point x="51" y="645" type="line"/>
      <point x="233" y="117" type="line"/>
      <point x="284" y="117" type="line"/>
      <point x="623" y="645" type="line"/>
    </contour>
    <contour>
      <point x="205" y="279" type="line"/>
      <point x="196" y="176" type="line"/>
      <point x="166" y="0" type="line"/>
      <point x="325" y="0" type="line"/>
      <point x="339" y="176" type="line"/>
      <point x="357" y="279" type="line"/>
    </contour>
    <contour>
      <point x="333" y="645" type="move" name="top"/>
    </contour>
  </outline>
</glyph>
<glyph name="grave" format="1">
  <advance width="390"/>
  <unicode hex="0060"/>
  <outline>
    <contour>
      <point x="168" y="734" type="line"/>
      <point x="112" y="650" type="line"/>
      <point x="115" y="635" type="line"/>
      <point x="188" y="593"/>
      <point x="253" y="556"/>
      <point x="319" y="520" type="curve"/>
      <point x="334" y="521" type="line"/>
      <point x="370" y="579" type="line"/>
      <point x="302" y="632"/>
      <point x="242" y="681"/>
      <point x="182" y="735" type="curve"/>
    </contour>
    <contour>
      <point x="237" y="467" type="move" name="_top"/>
    </contour>
  </outline>
</glyph>
<glyph name="d" format="1">
  <advance width="567"/>
  <unicode hex="0064"/>
  <outline>
    <contour>
      <point x="99" y="508" type="line"/>
      <point x="215" y="390" type="line"/>
      <point x="243" y="394"/>
      <point x="283" y="395"/>
      <point x="303" y="395" type="curve" smooth="yes"/>
      <point x="361" y="395"/>
      <point x="390" y="364"/>
      <point x="390" y="286" type="curve" smooth="yes"/>
      <point x="390" y="151"/>
      <point x="343" y="104"/>
      <point x="271" y="104" type="curve" smooth="yes"/>
      <point x="250" y="104"/>
      <point x="202" y="109"/>
      <point x="176" y="113" type="curve"/>
      <point x="36" y="0" type="line"/>
      <point x="96" y="-4"/>
      <point x="189" y="-7"/>
      <point x="239" y="-7" type="curve" smooth="yes"/>
      <point x="439" y="-7"/>
      <point x="545" y="113"/>
      <point x="545" y="310" type="curve" smooth="yes"/>
      <point x="545" y="439"/>
      <point x="461" y="511"/>
      <point x="322" y="511" type="curve"/>
    </contour>
    <contour>
      <point x="99" y="508" type="line"/>
      <point x="61" y="149" type="line"/>
      <point x="36" y="0" type="line"/>
      <point x="183" y="0" type="line"/>
      <point x="197" y="164" type="line"/>
      <point x="248" y="508" type="line"/>
    </contour>
    <contour>
      <point x="259" y="254" type="move" name="center"/>
    </contour>
    <contour>
      <point x="303" y="508" type="move" name="top"/>
    </contour>
  </outline>
</glyph>
<glyph name="e" format="1">
  <advance width="460"/>
  <unicode hex="0065"/>
  <outline>
    <contour>
      <point x="99" y="508" type="line"/>
      <point x="61" y="149" type="line"/>
      <point x="36" y="0" type="line"/>
      <point x="183" y="0" type="line"/>
      <point x="197" y="164" type="line"/>
      <point x="248" y="508" type="line"/>
    </contour>
    <contour>
      <point x="277" y="114" type="line"/>
      <point x="149" y="114" type="line"/>
      <point x="136" y="9" type="line"/>
      <point x="135" y="0" type="line"/>
      <point x="397" y="0" type="line"/>
      <point x="420" y="108" type="line"/>
      <point x="413" y="118" type="line"/>
    </contour>
    <contour>
      <point x="305" y="312" type="line"/>
      <point x="181" y="313" type="line"/>
      <point x="168" y="207" type="line"/>
      <point x="167" y="198" type="line"/>
      <point x="281" y="199" type="line"/>
      <point x="376" y="196" type="line"/>
      <point x="398" y="305" type="line"/>
      <point x="391" y="315" type="line"/>
    </contour>
    <contour>
      <point x="197" y="508" type="line"/>
      <point x="183" y="402" type="line"/>
      <point x="183" y="394" type="line"/>
      <point x="320" y="394" type="line"/>
      <point x="449" y="389" type="line"/>
      <point x="472" y="497" type="line"/>
      <point x="465" y="508" type="line"/>
    </contour>
    <contour>
      <point x="234" y="0" type="move" name="bottom"/>
    </contour>
    <contour>
      <point x="398" y="10" type="move" name="ogonek"/>
    </contour>
    <contour>
      <point x="270" y="508" type="move" name="top"/>
    </contour>
  </outline>
</glyph>
<glyph name="f" format="1">
  <advance width="408"/>
  <unicode hex="0066"/>
  <outline>
    <contour>
      <point x="95" y="508" type="line"/>
      <point x="57" y="149" type="line"/>
      <point x="32" y="0" type="line"/>
      <point x="179" y="0" type="line"/>
      <point x="193" y="164" type="line"/>
      <point x="244" y="508" type="line"/>
    </contour>
    <contour>
      <point x="275" y="294" type="line"/>
      <point x="173" y="294" type="line"/>
      <point x="159" y="180" type="line"/>
      <point x="250" y="180" type="line"/>
      <point x="353" y="177" type="line"/>
      <point x="376" y="286" type="line"/>
      <point x="369" y="297" type="line"/>
    </contour>
    <contour>
      <point x="193" y="508" type="line"/>
      <point x="179" y="402" type="line"/>
      <point x="179" y="394" type="line"/>
      <point x="292" y="394" type="line"/>
      <point x="420" y="389" type="line"/>
      <point x="444" y="497" type="line"/>
      <point x="437" y="508" type="line"/>
    </contour>
  </outline>
</glyph>
<glyph name="h" format="1">
  <advance width="602"/>
  <unicode hex="0068"/>
  <outline>
    <contour>
      <point x="423" y="508" type="line"/>
      <point x="385" y="149" type="line"/>
      <point x="360" y="0" type="line"/>
      <point x="507" y="0" type="line"/>
      <point x="521" y="164" type="line"/>
      <point x="572" y="508" type="line"/>
    </contour>
    <contour>
      <point x="100" y="508" type="line"/>
      <point x="62" y="149" type="line"/>
      <point x="37" y="0" type="line"/>
      <point x="184" y="0" type="line"/>
      <point x="198" y="164" type="line"/>
      <point x="249" y="508" type="line"/>
    </contour>
    <contour>
      <point x="187" y="191" type="line"/>
      <point x="291" y="193" type="line"/>
      <point x="400" y="192" type="line"/>
      <point x="415" y="313" type="line"/>
      <point x="314" y="311" type="line"/>
      <point x="202" y="313" type="line"/>
    </contour>
    <contour>
      <point x="331" y="254" type="move" name="center"/>
    </contour>
    <contour>
      <point x="332" y="508" type="move" name="top"/>
    </contour>
  </outline>
</glyph>
<glyph name="j" format="1">
  <advance width="326"/>
  <unicode hex="006A"/>
  <outline>
    <contour>
      <point x="131" y="508" type="line"/>
      <point x="93" y="152" type="line"/>
      <point x="86" y="99" type="line"/>
      <point x="80" y="50"/>
      <point x="56" y="24"/>
      <point x="-6" y="-3" type="curve"/>
      <point x="-7" y="-15" type="line"/>
      <point x="28" y="-92" type="line"/>
      <point x="163" y="-45"/>
      <point x="211" y="4"/>
      <point x="223" y="97" type="curve"/>
      <point x="230" y="167" type="line"/>
      <point x="279" y="508" type="line"/>
    </contour>
    <contour>
      <point x="49" y="508" type="line"/>
      <point x="28" y="407" type="line"/>
      <point x="35" y="398" type="line"/>
      <point x="136" y="400" type="line"/>
      <point x="147" y="508" type="line"/>
    </contour>
  </outline>
</glyph>
<glyph name="n" format="1">
  <advance width="603"/>
  <unicode hex="006E"/>
  <outline>
    <contour>
      <point x="437" y="502" type="line"/>
      <point x="407" y="219" type="line"/>
      <point x="398" y="219" type="line"/>
      <point x="256" y="508" type="line"/>
      <point x="99" y="508" type="line"/>
      <point x="61" y="149" type="line"/>
      <point x="36" y="0" type="line"/>
      <point x="167" y="0" type="line"/>
      <point x="185" y="181" type="line"/>
      <point x="199" y="289" type="line"/>
      <point x="207" y="289" type="line"/>
      <point x="348" y="0" type="line"/>
      <point x="506" y="0" type="line"/>
      <point x="520" y="163" type="line"/>
      <point x="572" y="511" type="line"/>
    </contour>
    <contour>
      <point x="270" y="0" type="move" name="bottom"/>
    </contour>
    <contour>
      <point x="332" y="508" type="move" name="top"/>
    </contour>
  </outline>
</glyph>
<glyph name="o" format="1">
  <advance width="558"/>
  <unicode hex="006F"/>
  <outline>
    <contour>
      <point x="129" y="516"/>
      <point x="26" y="393"/>
      <point x="26" y="219" type="curve" smooth="yes"/>
      <point x="26" y="63"/>
      <point x="109" y="-10"/>
      <point x="248" y="-10" type="curve" smooth="yes"/>
      <point x="432" y="-10"/>
      <point x="536" y="118"/>
      <point x="536" y="291" type="curve" smooth="yes"/>
      <point x="536" y="445"/>
      <point x="453" y="516"/>
      <point x="314" y="516" type="curve" smooth="yes"/>
    </contour>
    <contour>
      <point x="362" y="399"/>
      <point x="381" y="370"/>
      <point x="381" y="279" type="curve" smooth="yes"/>
      <point x="381" y="140"/>
      <point x="340" y="102"/>
      <point x="267" y="102" type="curve" smooth="yes"/>
      <point x="201" y="102"/>
      <point x="180" y="129"/>
      <point x="180" y="222" type="curve" smooth="yes"/>
      <point x="180" y="362"/>
      <point x="223" y="399"/>
      <point x="296" y="399" type="curve" smooth="yes"/>
    </contour>
    <contour>
      <point x="308" y="508" type="move" name="top"/>
    </contour>
  </outline>
</glyph>
<glyph name="q" format="1">
  <advance width="561"/>
  <unicode hex="0071"/>
  <outline>
    <contour>
      <point x="129" y="516"/>
      <point x="26" y="393"/>
      <point x="26" y="219" type="curve" smooth="yes"/>
      <point x="26" y="63"/>
      <point x="109" y="-10"/>
      <point x="248" y="-10" type="curve" smooth="yes"/>
      <point x="432" y="-10"/>
      <point x="536" y="118"/>
      <point x="536" y="291" type="curve" smooth="yes"/>
      <point x="536" y="445"/>
      <point x="453" y="516"/>
      <point x="314" y="516" type="curve" smooth="yes"/>
    </contour>
    <contour>
      <point x="240" y="7" type="line"/>
      <point x="313" y="-63"/>
      <point x="398" y="-121"/>
      <point x="490" y="-165" type="curve"/>
      <point x="501" y="-160" type="line"/>
      <point x="534" y="-134"/>
      <point x="557" y="-105"/>
      <point x="580" y="-69" type="curve"/>
      <point x="576" y="-56" type="line"/>
      <point x="490" y="-32"/>
      <point x="410" y="4"/>
      <point x="339" y="50" type="curve"/>
    </contour>
    <contour>
      <point x="362" y="399"/>
      <point x="381" y="370"/>
      <point x="381" y="279" type="curve" smooth="yes"/>
      <point x="381" y="140"/>
      <point x="340" y="102"/>
      <point x="267" y="102" type="curve" smooth="yes"/>
      <point x="201" y="102"/>
      <point x="180" y="129"/>
      <point x="180" y="222" type="curve" smooth="yes"/>
      <point x="180" y="362"/>
      <point x="223" y="399"/>
      <point x="296" y="399" type="curve" smooth="yes"/>
    </contour>
  </outline>
</glyph>
<glyph name="s" format="1">
  <advance width="449"/>
  <unicode hex="0073"/>
  <outline>
    <contour>
      <point x="142" y="516"/>
      <point x="58" y="433"/>
      <point x="58" y="334" type="curve" smooth="yes"/>
      <point x="58" y="188"/>
      <point x="255" y="198"/>
      <point x="255" y="136" type="curve" smooth="yes"/>
      <point x="255" y="114"/>
      <point x="234" y="96"/>
      <point x="203" y="96" type="curve" smooth="yes"/>
      <point x="163" y="96"/>
      <point x="104" y="122"/>
      <point x="60" y="163" type="curve"/>
      <point x="45" y="153" type="line"/>
      <point x="10" y="20" type="line"/>
      <point x="67" y="-2"/>
      <point x="130" y="-10"/>
      <point x="176" y="-10" type="curve" smooth="yes"/>
      <point x="335" y="-10"/>
      <point x="403" y="86"/>
      <point x="403" y="172" type="curve" smooth="yes"/>
      <point x="403" y="317"/>
      <point x="207" y="307"/>
      <point x="207" y="369" type="curve" smooth="yes"/>
      <point x="207" y="389"/>
      <point x="224" y="406"/>
      <point x="254" y="406" type="curve" smooth="yes"/>
      <point x="284" y="406"/>
      <point x="328" y="390"/>
      <point x="369" y="358" type="curve"/>
      <point x="391" y="363" type="line"/>
      <point x="426" y="490" type="line"/>
      <point x="386" y="506"/>
      <point x="334" y="516"/>
      <point x="283" y="516" type="curve" smooth="yes"/>
    </contour>
    <contour>
      <point x="205" y="0" type="move" name="bottom"/>
    </contour>
    <contour>
      <point x="254" y="508" type="move" name="top"/>
    </contour>
  </outline>
</glyph>
<glyph name="u" format="1">
  <advance width="553"/>
  <unicode hex="0075"/>
  <outline>
    <contour>
      <point x="387" y="508" type="line"/>
      <point x="354" y="191" type="line" smooth="yes"/>
      <point x="348" y="134"/>
      <point x="318" y="108"/>
      <point x="260" y="108" type="curve" smooth="yes"/>
      <point x="209" y="108"/>
      <point x="186" y="128"/>
      <point x="186" y="171" type="curve" smooth="yes"/>
      <point x="186" y="178"/>
      <point x="186" y="184"/>
      <point x="187" y="191" type="curve" smooth="yes"/>
      <point x="233" y="508" type="line"/>
      <point x="86" y="508" type="line"/>
      <point x="59" y="251" type="line"/>
      <point x="47" y="170" type="line" smooth="yes"/>
      <point x="45" y="159"/>
      <point x="44" y="147"/>
      <point x="44" y="136" type="curve" smooth="yes"/>
      <point x="44" y="42"/>
      <point x="119" y="-9"/>
      <point x="246" y="-9" type="curve" smooth="yes"/>
      <point x="391" y="-9"/>
      <point x="474" y="55"/>
      <point x="488" y="170" type="curve" smooth="yes"/>
      <point x="499" y="250" type="line"/>
      <point x="535" y="508" type="line"/>
    </contour>
    <contour>
      <point x="467" y="10" type="move" name="ogonek"/>
    </contour>
    <contour>
      <point x="308" y="508" type="move" name="top"/>
    </contour>
  </outline>
</glyph>
<glyph name="x" format="1">
  <advance width="536"/>
  <unicode hex="0078"/>
  <outline>
    <contour>
      <point x="395" y="508" type="line"/>
      <point x="365" y="454" type="line"/>
      <point x="289" y="353" type="line"/>
      <point x="240" y="447" type="line"/>
      <point x="221" y="508" type="line"/>
      <point x="47" y="508" type="line"/>
      <point x="186" y="253" type="line"/>
      <point x="-13" y="0" type="line"/>
      <point x="139" y="0" type="line"/>
      <point x="171" y="52" type="line"/>
      <point x="255" y="157" type="line"/>
      <point x="306" y="60" type="line"/>
      <point x="325" y="0" type="line"/>
      <point x="498" y="0" type="line"/>
      <point x="361" y="260" type="line"/>
      <point x="552" y="508" type="line"/>
    </contour>
  </outline>
</glyph>
<glyph name="y" format="1">
  <advance width="501"/>
  <unicode hex="0079"/>
  <outline>
    <contour>
      <point x="383" y="508" type="line"/>
      <point x="360" y="462" type="line"/>
      <point x="261" y="306" type="line"/>
      <point x="253" y="306" type="line"/>
      <point x="202" y="467" type="line"/>
      <point x="194" y="508" type="line"/>
      <point x="40" y="508" type="line"/>
      <point x="198" y="73" type="line"/>
      <point x="246" y="73" type="line"/>
      <point x="534" y="508" type="line"/>
    </contour>
    <contour>
      <point x="173" y="221" type="line"/>
      <point x="165" y="135" type="line"/>
      <point x="141" y="0" type="line"/>
      <point x="287" y="0" type="line"/>
      <point x="298" y="135" type="line"/>
      <point x="313" y="221" type="line"/>
    </contour>
    <contour>
      <point x="281" y="508" type="move" name="top"/>
    </contour>
  </outline>
</glyph>
<glyph name="cent" format="1">
  <advance width="387"/>
  <unicode hex="00A2"/>
  <outline>
    <contour>
      <point x="146" y="87" type="line"/>
      <point x="117" y="-113" type="line" smooth="yes"/>
      <point x="126" y="-124" type="line" smooth="yes"/>
      <point x="203" y="-124" type="line" smooth="yes"/>
      <point x="235" y="87" type="line"/>
    </contour>
    <contour>
      <point x="234" y="657" type="line" smooth="yes"/>
      <point x="204" y="456" type="line"/>
      <point x="293" y="456" type="line"/>
      <point x="321" y="645" type="line" smooth="yes"/>
      <point x="309" y="657" type="line" smooth="yes"/>
    </contour>
    <contour>
      <point x="105" y="513"/>
      <point x="23" y="376"/>
      <point x="23" y="217" type="curve" smooth="yes"/>
      <point x="23" y="100"/>
      <point x="68" y="47"/>
      <point x="171" y="32" type="curve"/>
      <point x="190" y="32" type="line"/>
      <point x="260" y="53"/>
      <point x="306" y="88"/>
      <point x="351" y="162" type="curve"/>
      <point x="308" y="215" type="line"/>
      <point x="291" y="216" type="line"/>
      <point x="257" y="158"/>
      <point x="229" y="142"/>
      <point x="202" y="142" type="curve" smooth="yes"/>
      <point x="165" y="142"/>
      <point x="148" y="171"/>
      <point x="148" y="242" type="curve" smooth="yes"/>
      <point x="148" y="353"/>
      <point x="185" y="413"/>
      <point x="253" y="413" type="curve" smooth="yes"/>
      <point x="277" y="413"/>
      <point x="294" y="403"/>
      <point x="318" y="378" type="curve"/>
      <point x="347" y="379" type="line"/>
      <point x="382" y="475" type="line"/>
      <point x="376" y="489" type="line"/>
      <point x="294" y="513" type="line"/>
    </contour>
    <contour>
      <point x="211" y="507" type="move" name="top"/>
    </contour>
    <contour>
      <point x="190" y="39" type="move" name="bottom"/>
    </contour>
  </outline>
</glyph>
<glyph name="currency" format="1">
  <advance width="435"/>
  <unicode hex="00A4"/>
  <outline>
    <contour>
      <point x="384" y="562" type="line"/>
      <point x="316" y="491" type="line"/>
      <point x="297" y="502"/>
      <point x="275" y="508"/>
      <point x="250" y="508" type="curve" smooth="yes"/>
      <point x="223" y="508"/>
      <point x="196" y="501"/>
      <point x="173" y="489" type="curve"/>
      <point x="120" y="559" type="line"/>
      <point x="107" y="559" type="line"/>
      <point x="31" y="489" type="line"/>
      <point x="31" y="475" type="line"/>
      <point x="94" y="417" type="line"/>
      <point x="76" y="391"/>
      <point x="66" y="362"/>
      <point x="66" y="330" type="curve" smooth="yes"/>
      <point x="66" y="309"/>
      <point x="70" y="287"/>
      <point x="78" y="270" type="curve"/>
      <point x="2" y="210" type="line"/>
      <point x="-1" y="196" type="line"/>
      <point x="61" y="130" type="line"/>
      <point x="76" y="131" type="line"/>
      <point x="141" y="201" type="line"/>
      <point x="161" y="189"/>
      <point x="185" y="182"/>
      <point x="210" y="182" type="curve" smooth="yes"/>
      <point x="238" y="182"/>
      <point x="265" y="190"/>
      <point x="290" y="204" type="curve"/>
      <point x="342" y="134" type="line"/>
      <point x="355" y="134" type="line"/>
      <point x="431" y="205" type="line"/>
      <point x="430" y="219" type="line"/>
      <point x="367" y="276" type="line"/>
      <point x="383" y="302"/>
      <point x="394" y="329"/>
      <point x="394" y="361" type="curve" smooth="yes"/>
      <point x="394" y="382"/>
      <point x="390" y="404"/>
      <point x="382" y="422" type="curve"/>
      <point x="459" y="483" type="line"/>
      <point x="461" y="497" type="line"/>
      <point x="399" y="564" type="line"/>
    </contour>
    <contour>
      <point x="284" y="426"/>
      <point x="312" y="398"/>
      <point x="312" y="356" type="curve" smooth="yes"/>
      <point x="312" y="302"/>
      <point x="273" y="265"/>
      <point x="220" y="265" type="curve" smooth="yes"/>
      <point x="175" y="265"/>
      <point x="148" y="293"/>
      <point x="148" y="336" type="curve" smooth="yes"/>
      <point x="148" y="389"/>
      <point x="187" y="426"/>
      <point x="240" y="426" type="curve" smooth="yes"/>
    </contour>
  </outline>
</glyph>
<glyph name="copyright" format="1">
  <advance width="694"/>
  <unicode hex="00A9"/>
  <outline>
    <contour>
      <point x="174" y="598"/>
      <point x="53" y="476"/>
      <point x="53" y="293" type="curve" smooth="yes"/>
      <point x="53" y="110"/>
      <point x="174" y="-12"/>
      <point x="354" y="-12" type="curve" smooth="yes"/>
      <point x="535" y="-12"/>
      <point x="656" y="110"/>
      <point x="656" y="293" type="curve" smooth="yes"/>
      <point x="656" y="476"/>
      <point x="535" y="598"/>
      <point x="354" y="598" type="curve" smooth="yes"/>
    </contour>
    <contour>
      <point x="266" y="464"/>
      <point x="202" y="401"/>
      <point x="202" y="293" type="curve" smooth="yes"/>
      <point x="202" y="186"/>
      <point x="258" y="128"/>
      <point x="373" y="128" type="curve" smooth="yes"/>
      <point x="397" y="128"/>
      <point x="423" y="130"/>
      <point x="449" y="137" type="curve"/>
      <point x="457" y="218" type="line"/>
      <point x="448" y="222" type="line"/>
      <point x="428" y="216"/>
      <point x="401" y="212"/>
      <point x="381" y="212" type="curve" smooth="yes"/>
      <point x="331" y="212"/>
      <point x="309" y="241"/>
      <point x="309" y="304" type="curve" smooth="yes"/>
      <point x="309" y="360"/>
      <point x="329" y="381"/>
      <point x="375" y="381" type="curve" smooth="yes"/>
      <point x="395" y="381"/>
      <point x="423" y="375"/>
      <point x="442" y="366" type="curve"/>
      <point x="448" y="370" type="line"/>
      <point x="466" y="451" type="line"/>
      <point x="440" y="459"/>
      <point x="411" y="464"/>
      <point x="379" y="464" type="curve" smooth="yes"/>
    </contour>
    <contour>
      <point x="503" y="546"/>
      <point x="603" y="445"/>
      <point x="603" y="293" type="curve" smooth="yes"/>
      <point x="603" y="141"/>
      <point x="503" y="40"/>
      <point x="354" y="40" type="curve" smooth="yes"/>
      <point x="205" y="40"/>
      <point x="105" y="141"/>
      <point x="105" y="293" type="curve" smooth="yes"/>
      <point x="105" y="445"/>
      <point x="205" y="546"/>
      <point x="354" y="546" type="curve" smooth="yes"/>
    </contour>
  </outline>
</glyph>
<glyph name="logicalnot" format="1">
  <advance width="480"/>
  <unicode hex="00AC"/>
  <outline>
    <contour>
      <point x="37" y="311" type="line"/>
      <point x="18" y="217" type="line"/>
      <point x="27" y="206" type="line"/>
      <point x="327" y="206" type="line"/>
      <point x="307" y="48" type="line"/>
      <point x="317" y="38" type="line"/>
      <point x="412" y="46" type="line"/>
      <point x="444" y="302" type="line"/>
      <point x="439" y="311" type="line"/>
    </contour>
  </outline>
</glyph>
<glyph name="macron" format="1">
  <advance width="390"/>
  <unicode hex="00AF"/>
  <outline>
    <contour>
      <point x="103" y="671" type="line"/>
      <point x="95" y="585" type="line"/>
      <point x="105" y="575" type="line"/>
      <point x="383" y="575" type="line"/>
      <point x="391" y="661" type="line"/>
      <point x="381" y="671" type="line"/>
    </contour>
    <contour>
      <point x="224" y="467" type="move" name="_top"/>
    </contour>
  </outline>
</glyph>
<glyph name="cedilla" format="1">
  <advance width="390"/>
  <unicode hex="00B8"/>
  <outline>
    <contour>
      <point x="110" y="28" type="line"/>
      <point x="88" y="-76" type="line"/>
      <point x="137" y="-104" type="line" smooth="yes"/>
      <point x="146" y="-109"/>
      <point x="152" y="-114"/>
      <point x="152" y="-122" type="curve" smooth="yes"/>
      <point x="152" y="-134"/>
      <point x="144" y="-141"/>
      <point x="131" y="-141" type="curve" smooth="yes"/>
      <point x="113" y="-141"/>
      <point x="91" y="-130"/>
      <point x="72" y="-112" type="curve"/>
      <point x="65" y="-114" type="line"/>
      <point x="55" y="-177" type="line"/>
      <point x="78" y="-193"/>
      <point x="106" y="-204"/>
      <point x="140" y="-204" type="curve" smooth="yes"/>
      <point x="202" y="-204"/>
      <point x="241" y="-171"/>
      <point x="241" y="-126" type="curve" smooth="yes"/>
      <point x="241" y="-102"/>
      <point x="231" y="-83"/>
      <point x="198" y="-65" type="curve" smooth="yes"/>
      <point x="164" y="-46" type="line"/>
      <point x="181" y="28" type="line"/>
    </contour>
    <contour>
      <point x="158" y="-1" type="move" name="_bottom"/>
    </contour>
  </outline>
</glyph>
<glyph name="AE" format="1">
  <advance width="814"/>
  <unicode hex="00C6"/>
  <outline>
    <contour>
      <point x="324" y="645" type="line"/>
      <point x="-46" y="0" type="line"/>
      <point x="110" y="0" type="line"/>
      <point x="153" y="101" type="line"/>
      <point x="375" y="499" type="line"/>
      <point x="385" y="499" type="line"/>
      <point x="377" y="92" type="line"/>
      <point x="371" y="0" type="line"/>
      <point x="771" y="0" type="line"/>
      <point x="796" y="117" type="line"/>
      <point x="788" y="129" type="line"/>
      <point x="626" y="123" type="line"/>
      <point x="529" y="123" type="line"/>
      <point x="539" y="521" type="line"/>
      <point x="620" y="521" type="line"/>
      <point x="770" y="516" type="line"/>
      <point x="795" y="633" type="line"/>
      <point x="787" y="645" type="line"/>
    </contour>
    <contour>
      <point x="505" y="357" type="line"/>
      <point x="157" y="262" type="line"/>
      <point x="103" y="128" type="line"/>
      <point x="507" y="239" type="line"/>
      <point x="732" y="296" type="line"/>
      <point x="732" y="407" type="line"/>
      <point x="722" y="416" type="line"/>
    </contour>
    <contour>
      <point x="544" y="645" type="move" name="top"/>
    </contour>
  </outline>
</glyph>
<glyph name="aogonek" format="1">
  <advance width="530"/>
  <unicode hex="0105"/>
  <outline>
    <contour>
      <point x="330" y="0" type="line"/>
      <point x="286" y="-53"/>
      <point x="274" y="-83"/>
      <point x="274" y="-117" type="curve" smooth="yes"/>
      <point x="274" y="-164"/>
      <point x="307" y="-197"/>
      <point x="358" y="-197" type="curve" smooth="yes"/>
      <point x="393" y="-197"/>
      <point x="425" y="-181"/>
      <point x="464" y="-149" type="curve"/>
      <point x="461" y="-86" type="line"/>
      <point x="452" y="-86" type="line"/>
      <point x="430" y="-103"/>
      <point x="408" y="-113"/>
      <point x="389" y="-113" type="curve" smooth="yes"/>
      <point x="370" y="-113"/>
      <point x="360" y="-103"/>
      <point x="360" y="-86" type="curve" smooth="yes"/>
      <point x="360" y="-68"/>
      <point x="371" y="-45"/>
      <point x="415" y="1" type="curve"/>
    </contour>
    <component base="a"/>
  </outline>
</glyph>
<glyph name="hbar" format="1">
  <advance width="602"/>
  <unicode hex="0127"/>
  <outline>
    <contour>
      <point x="39" y="443" type="line"/>
      <point x="25" y="373" type="line"/>
      <point x="30" y="365" type="line"/>
      <point x="603" y="365" type="line"/>
      <point x="617" y="436" type="line"/>
      <point x="611" y="443" type="line"/>
    </contour>
    <component base="h"/>
  </outline>
</glyph>
<glyph name="iogonek" format="1">
  <advance width="287"/>
  <unicode hex="012F"/>
  <outline>
    <contour>
      <point x="43" y="8" type="line"/>
      <point x="3" y="-46"/>
      <point x="-9" y="-75"/>
      <point x="-9" y="-107" type="curve" smooth="yes"/>
      <point x="-9" y="-159"/>
      <point x="27" y="-197"/>
      <point x="83" y="-197" type="curve" smooth="yes"/>
      <point x="119" y="-197"/>
      <point x="151" y="-181"/>
      <point x="188" y="-149" type="curve"/>
      <point x="175" y="-87" type="line"/>
      <point x="167" y="-87" type="line"/>
      <point x="147" y="-105"/>
      <point x="123" y="-114"/>
      <point x="105" y="-114" type="curve" smooth="yes"/>
      <point x="83" y="-114"/>
      <point x="72" y="-102"/>
      <point x="72" y="-84" type="curve" smooth="yes"/>
      <point x="72" y="-64"/>
      <point x="83" y="-39"/>
      <point x="125" y="13" type="curve"/>
    </contour>
    <component base="i"/>
  </outline>
</glyph>
<glyph name="Eng" format="1">
  <advance width="697"/>
  <unicode hex="014A"/>
  <outline>
    <contour>
      <point x="526" y="639" type="line"/>
      <point x="483" y="254" type="line"/>
      <point x="473" y="254" type="line"/>
      <point x="294" y="645" type="line"/>
      <point x="122" y="645" type="line"/>
      <point x="75" y="190" type="line"/>
      <point x="42" y="0" type="line"/>
      <point x="187" y="0" type="line"/>
      <point x="209" y="226" type="line"/>
      <point x="231" y="404" type="line"/>
      <point x="241" y="404" type="line"/>
      <point x="430" y="0" type="line"/>
      <point x="412" y="-30"/>
      <point x="380" y="-53"/>
      <point x="329" y="-78" type="curve"/>
      <point x="328" y="-92" type="line"/>
      <point x="363" y="-175" type="line"/>
      <point x="523" y="-121"/>
      <point x="582" y="-60"/>
      <point x="596" y="55" type="curve"/>
      <point x="609" y="203" type="line"/>
      <point x="673" y="648" type="line"/>
    </contour>
  </outline>
</glyph>
<glyph name="Tcedilla" format="1">
  <advance width="501"/>
  <unicode hex="0162"/>
  <outline>
    <contour>
      <point x="194" y="25" type="line"/>
      <point x="173" y="-73" type="line"/>
      <point x="220" y="-100" type="line" smooth="yes"/>
      <point x="229" y="-105"/>
      <point x="234" y="-110"/>
      <point x="234" y="-119" type="curve" smooth="yes"/>
      <point x="234" y="-130"/>
      <point x="227" y="-137"/>
      <point x="214" y="-137" type="curve" smooth="yes"/>
      <point x="197" y="-137"/>
      <point x="177" y="-126"/>
      <point x="158" y="-108" type="curve"/>
      <point x="152" y="-111" type="line"/>
      <point x="142" y="-171" type="line"/>
      <point x="164" y="-185"/>
      <point x="191" y="-197"/>
      <point x="223" y="-197" type="curve" smooth="yes"/>
      <point x="281" y="-197"/>
      <point x="318" y="-165"/>
      <point x="318" y="-121" type="curve" smooth="yes"/>
      <point x="318" y="-98"/>
      <point x="308" y="-80"/>
      <point x="278" y="-63" type="curve" smooth="yes"/>
      <point x="246" y="-44" type="line"/>
      <point x="261" y="25" type="line"/>
    </contour>
    <component base="T"/>
  </outline>
</glyph>
<glyph name="tcedilla" format="1">
  <advance width="445"/>
  <unicode hex="0163"/>
  <outline>
    <contour>
      <point x="167" y="25" type="line"/>
      <point x="133" y="-76" type="line"/>
      <point x="178" y="-103" type="line" smooth="yes"/>
      <point x="186" y="-108"/>
      <point x="190" y="-113"/>
      <point x="190" y="-120" type="curve" smooth="yes"/>
      <point x="190" y="-133"/>
      <point x="181" y="-142"/>
      <point x="166" y="-142" type="curve" smooth="yes"/>
      <point x="150" y="-142"/>
      <point x="129" y="-130"/>
      <point x="113" y="-112" type="curve"/>
      <point x="107" y="-115" type="line"/>
      <point x="89" y="-177" type="line"/>
      <point x="109" y="-192"/>
      <point x="134" y="-203"/>
      <point x="168" y="-203" type="curve" smooth="yes"/>
      <point x="232" y="-203"/>
      <point x="277" y="-167"/>
      <point x="277" y="-118" type="curve" smooth="yes"/>
      <point x="277" y="-98"/>
      <point x="268" y="-81"/>
      <point x="242" y="-65" type="curve" smooth="yes"/>
      <point x="211" y="-46" type="line"/>
      <point x="235" y="25" type="line"/>
    </contour>
    <component base="t" xOffset="-3"/>
  </outline>
</glyph>
<glyph name="tbar" format="1">
  <advance width="445"/>
  <unicode hex="0167"/>
  <outline>
    <contour>
      <point x="75" y="255" type="line"/>
      <point x="60" y="182" type="line"/>
      <point x="68" y="171" type="line"/>
      <point x="365" y="171" type="line"/>
      <point x="380" y="245" type="line"/>
      <point x="371" y="255" type="line"/>
    </contour>
    <component base="t" xOffset="0.636"/>
  </outline>
</glyph>
<glyph name="uogonek" format="1">
  <advance width="553"/>
  <unicode hex="0173"/>
  <outline>
    <contour>
      <point x="366" y="70" type="line"/>
      <point x="293" y="-21" type="line" smooth="yes"/>
      <point x="270" y="-49"/>
      <point x="261" y="-79"/>
      <point x="261" y="-106" type="curve" smooth="yes"/>
      <point x="261" y="-157"/>
      <point x="297" y="-197"/>
      <point x="357" y="-197" type="curve" smooth="yes"/>
      <point x="393" y="-197"/>
      <point x="424" y="-182"/>
      <point x="463" y="-149" type="curve"/>
      <point x="451" y="-88" type="line"/>
      <point x="443" y="-88" type="line"/>
      <point x="422" y="-104"/>
      <point x="399" y="-114"/>
      <point x="380" y="-114" type="curve" smooth="yes"/>
      <point x="354" y="-114"/>
      <point x="342" y="-99"/>
      <point x="342" y="-78" type="curve" smooth="yes"/>
      <point x="342" y="-64"/>
      <point x="350" y="-47"/>
      <point x="361" y="-33" type="curve" smooth="yes"/>
      <point x="435" y="70" type="line"/>
    </contour>
    <component base="u"/>
  </outline>
</glyph>
<glyph name="florin" format="1">
  <advance width="333"/>
  <unicode hex="0192"/>
  <outline>
    <contour>
      <point x="207" y="622"/>
      <point x="122" y="558"/>
      <point x="109" y="441" type="curve" smooth="yes"/>
      <point x="102" y="389" type="line"/>
      <point x="31" y="389" type="line"/>
      <point x="23" y="312" type="line"/>
      <point x="27" y="304" type="line"/>
      <point x="93" y="304" type="line"/>
      <point x="79" y="171" type="line"/>
      <point x="66" y="55" type="line" smooth="yes"/>
      <point x="57" y="-8"/>
      <point x="37" y="-42"/>
      <point x="-12" y="-77" type="curve"/>
      <point x="-14" y="-88" type="line"/>
      <point x="49" y="-151" type="line"/>
      <point x="148" y="-95"/>
      <point x="186" y="-39"/>
      <point x="197" y="58" type="curve"/>
      <point x="211" y="186" type="line"/>
      <point x="226" y="304" type="line"/>
      <point x="332" y="304" type="line"/>
      <point x="340" y="380" type="line"/>
      <point x="336" y="389" type="line"/>
      <point x="238" y="389" type="line"/>
      <point x="248" y="465" type="line" smooth="yes"/>
      <point x="254" y="504"/>
      <point x="275" y="523"/>
      <point x="314" y="523" type="curve" smooth="yes"/>
      <point x="332" y="523"/>
      <point x="356" y="518"/>
      <point x="389" y="504" type="curve"/>
      <point x="400" y="510" type="line"/>
      <point x="421" y="613" type="line"/>
      <point x="392" y="619"/>
      <point x="365" y="622"/>
      <point x="338" y="622" type="curve" smooth="yes"/>
    </contour>
  </outline>
</glyph>
<glyph name="ohorn" format="1">
  <advance width="565"/>
  <unicode hex="01A1"/>
  <outline>
    <contour>
      <point x="481" y="580" type="line"/>
      <point x="493" y="568"/>
      <point x="500" y="552"/>
      <point x="500" y="536" type="curve" smooth="yes"/>
      <point x="500" y="510"/>
      <point x="484" y="495"/>
      <point x="455" y="495" type="curve" smooth="yes"/>
      <point x="421" y="495"/>
      <point x="375" y="516"/>
      <point x="304" y="516" type="curve" smooth="yes"/>
      <point x="138" y="516"/>
      <point x="26" y="400"/>
      <point x="26" y="205" type="curve" smooth="yes"/>
      <point x="26" y="70"/>
      <point x="109" y="-10"/>
      <point x="248" y="-10" type="curve" smooth="yes"/>
      <point x="430" y="-10"/>
      <point x="535" y="113"/>
      <point x="535" y="302" type="curve" smooth="yes"/>
      <point x="535" y="350"/>
      <point x="525" y="396"/>
      <point x="504" y="428" type="curve"/>
      <point x="565" y="435"/>
      <point x="613" y="487"/>
      <point x="613" y="548" type="curve" smooth="yes"/>
      <point x="613" y="589"/>
      <point x="589" y="618"/>
      <point x="556" y="618" type="curve" smooth="yes"/>
      <point x="533" y="618"/>
      <point x="505" y="604"/>
      <point x="485" y="591" type="curve"/>
    </contour>
    <contour>
      <point x="207" y="102"/>
      <point x="180" y="128"/>
      <point x="180" y="205" type="curve" smooth="yes"/>
      <point x="180" y="360"/>
      <point x="217" y="399"/>
      <point x="296" y="399" type="curve" smooth="yes"/>
      <point x="356" y="399"/>
      <point x="382" y="373"/>
      <point x="382" y="295" type="curve" smooth="yes"/>
      <point x="382" y="138"/>
      <point x="344" y="102"/>
      <point x="267" y="102" type="curve" smooth="yes"/>
    </contour>
    <contour>
      <point x="288" y="508" type="move" name="top"/>
    </contour>
  </outline>
</glyph>
<glyph name="Uhorn" format="1">
  <advance width="646"/>
  <unicode hex="01AF"/>
  <outline>
    <contour>
      <point x="610" y="795"/>
      <point x="584" y="781"/>
      <point x="561" y="765" type="curve"/>
      <point x="558" y="753" type="line"/>
      <point x="578" y="736"/>
      <point x="588" y="716"/>
      <point x="588" y="694" type="curve" smooth="yes"/>
      <point x="588" y="660"/>
      <point x="570" y="645"/>
      <point x="529" y="645" type="curve"/>
      <point x="552" y="570" type="line"/>
      <point x="645" y="582"/>
      <point x="708" y="638"/>
      <point x="708" y="708" type="curve" smooth="yes"/>
      <point x="708" y="758"/>
      <point x="675" y="795"/>
      <point x="636" y="795" type="curve" smooth="yes"/>
    </contour>
    <component base="U"/>
    <contour>
      <point x="352" y="645" type="move" name="top"/>
    </contour>
  </outline>
</glyph>
<glyph name="circumflex" format="1">
  <advance width="390"/>
  <unicode hex="02C6"/>
  <outline>
    <contour>
      <point x="121" y="527" type="line"/>
      <point x="166" y="558"/>
      <point x="209" y="588"/>
      <point x="242" y="615" type="curve"/>
      <point x="268" y="588"/>
      <point x="303" y="558"/>
      <point x="341" y="527" type="curve"/>
      <point x="356" y="527" type="line"/>
      <point x="402" y="586" type="line"/>
      <point x="356" y="632"/>
      <point x="308" y="683"/>
      <point x="269" y="730" type="curve"/>
      <point x="239" y="730" type="line"/>
      <point x="181" y="677"/>
      <point x="125" y="626"/>
      <point x="75" y="586" type="curve"/>
      <point x="106" y="527" type="line"/>
    </contour>
    <contour>
      <point x="218" y="467" type="move" name="_top"/>
    </contour>
  </outline>
</glyph>
<glyph name="caron" format="1">
  <advance width="390"/>
  <unicode hex="02C7"/>
  <outline>
    <contour>
      <point x="366" y="727" type="line"/>
      <point x="320" y="696"/>
      <point x="276" y="667"/>
      <point x="243" y="640" type="curve"/>
      <point x="217" y="667"/>
      <point x="183" y="696"/>
      <point x="145" y="727" type="curve"/>
      <point x="130" y="727" type="line"/>
      <point x="85" y="669" type="line"/>
      <point x="131" y="623"/>
      <point x="180" y="572"/>
      <point x="219" y="525" type="curve"/>
      <point x="249" y="525" type="line"/>
      <point x="307" y="578"/>
      <point x="362" y="629"/>
      <point x="412" y="669" type="curve"/>
      <point x="381" y="727" type="line"/>
    </contour>
    <contour>
      <point x="228" y="467" type="move" name="_top"/>
    </contour>
  </outline>
</glyph>
<glyph name="dotbelowcomb" format="1">
  <advance width="390"/>
  <unicode hex="0323"/>
  <outline>
    <contour>
      <point x="102" y="-48"/>
      <point x="70" y="-80"/>
      <point x="70" y="-132" type="curve" smooth="yes"/>
      <point x="70" y="-182"/>
      <point x="97" y="-210"/>
      <point x="147" y="-210" type="curve" smooth="yes"/>
      <point x="197" y="-210"/>
      <point x="229" y="-177"/>
      <point x="229" y="-125" type="curve" smooth="yes"/>
      <point x="229" y="-77"/>
      <point x="201" y="-48"/>
      <point x="153" y="-48" type="curve" smooth="yes"/>
    </contour>
    <contour>
      <point x="165" y="0" type="move" name="_bottom"/>
    </contour>
  </outline>
</glyph>
<glyph name="odotbelow" format="1">
  <advance width="558"/>
  <unicode hex="1ECD"/>
  <outline>
    <component base="o"/>
    <component base="dotbelowcomb" xOffset="108"/>
    <contour>
      <point x="310" y="508" type="move" name="top"/>
    </contour>
  </outline>
</glyph>
<glyph name="quoteright" format="1">
  <advance width="223"/>
  <unicode hex="2019"/>
  <outline>
    <contour>
      <point x="128" y="638"/>
      <point x="94" y="617"/>
      <point x="65" y="595" type="curve"/>
      <point x="65" y="582" type="line"/>
      <point x="96" y="563"/>
      <point x="106" y="539"/>
      <point x="106" y="506" type="curve" smooth="yes"/>
      <point x="106" y="478"/>
      <point x="93" y="449"/>
      <point x="66" y="419" type="curve"/>
      <point x="68" y="409" type="line"/>
      <point x="121" y="374" type="line"/>
      <point x="189" y="438"/>
      <point x="221" y="494"/>
      <point x="221" y="551" type="curve" smooth="yes"/>
      <point x="221" y="598"/>
      <point x="203" y="630"/>
      <point x="163" y="653" type="curve"/>
    </contour>
  </outline>
</glyph>
<glyph name="dagger" format="1">
  <advance width="510"/>
  <unicode hex="2020"/>
  <outline>
    <contour>
      <point x="243" y="584" type="line"/>
      <point x="206" y="280" type="line"/>
      <point x="161" y="-83" type="line"/>
      <point x="169" y="-94" type="line"/>
      <point x="266" y="-87" type="line"/>
      <point x="311" y="290" type="line"/>
      <point x="350" y="583" type="line"/>
      <point x="343" y="592" type="line"/>
    </contour>
    <contour>
      <point x="69" y="415" type="line"/>
      <point x="49" y="323" type="line"/>
      <point x="58" y="313" type="line"/>
      <point x="473" y="313" type="line"/>
      <point x="492" y="405" type="line"/>
      <point x="484" y="415" type="line"/>
    </contour>
  </outline>
</glyph>
<glyph name="Euro" format="1">
  <advance width="466"/>
  <unicode hex="20AC"/>
  <outline>
    <contour>
      <point x="215" y="513"/>
      <point x="122" y="439"/>
      <point x="85" y="308" type="curve"/>
      <point x="223" y="308" type="line"/>
      <point x="241" y="375"/>
      <point x="279" y="405"/>
      <point x="340" y="405" type="curve" smooth="yes"/>
      <point x="373" y="405"/>
      <point x="412" y="395"/>
      <point x="438" y="377" type="curve"/>
      <point x="448" y="383" type="line"/>
      <point x="484" y="488" type="line"/>
      <point x="448" y="504"/>
      <point x="402" y="513"/>
      <point x="355" y="513" type="curve" smooth="yes"/>
    </contour>
    <contour>
      <point x="69" y="191" type="line"/>
      <point x="70" y="62"/>
      <point x="144" y="-8"/>
      <point x="289" y="-8" type="curve" smooth="yes"/>
      <point x="325" y="-8"/>
      <point x="364" y="-2"/>
      <point x="404" y="14" type="curve"/>
      <point x="427" y="118" type="line"/>
      <point x="417" y="124" type="line"/>
      <point x="385" y="110"/>
      <point x="339" y="100"/>
      <point x="307" y="100" type="curve" smooth="yes"/>
      <point x="249" y="100"/>
      <point x="217" y="129"/>
      <point x="211" y="191" type="curve"/>
    </contour>
    <contour>
      <point x="25" y="343" type="line"/>
      <point x="13" y="278" type="line"/>
      <point x="17" y="270" type="line"/>
      <point x="362" y="270" type="line"/>
      <point x="375" y="337" type="line"/>
      <point x="369" y="343" type="line"/>
    </contour>
    <contour>
      <point x="12" y="230" type="line"/>
      <point x="0" y="164" type="line"/>
      <point x="4" y="157" type="line"/>
      <point x="349" y="157" type="line"/>
      <point x="361" y="223" type="line" smooth="yes"/>
      <point x="356" y="230" type="line"/>
    </contour>
  </outline>
</glyph>
<glyph name="summation" format="1">
  <advance width="526"/>
  <unicode hex="2211"/>
  <outline>
    <contour>
      <point x="419" y="645" type="line"/>
      <point x="171" y="645" type="line"/>
      <point x="81" y="646" type="line"/>
      <point x="66" y="528" type="line"/>
      <point x="236" y="323" type="line"/>
      <point x="13" y="108" type="line"/>
      <point x="0" y="-2" type="line"/>
      <point x="97" y="0" type="line"/>
      <point x="313" y="0" type="line"/>
      <point x="467" y="-2" type="line"/>
      <point x="492" y="113" type="line"/>
      <point x="483" y="126" type="line"/>
      <point x="361" y="118" type="line"/>
      <point x="206" y="118" type="line"/>
      <point x="407" y="312" type="line"/>
      <point x="409" y="335" type="line"/>
      <point x="255" y="526" type="line"/>
      <point x="419" y="526" type="line"/>
      <point x="524" y="520" type="line"/>
      <point x="548" y="635" type="line"/>
      <point x="540" y="646" type="line"/>
    </contour>
  </outline>
</glyph>
<glyph name="lozenge" format="1">
  <advance width="520"/>
  <unicode hex="25CA"/>
  <outline>
    <contour>
      <point x="247" y="643" type="line"/>
      <point x="50" y="298" type="line"/>
      <point x="45" y="257" type="line"/>
      <point x="158" y="-83" type="line"/>
      <point x="169" y="-89" type="line"/>
      <point x="289" y="-84" type="line"/>
      <point x="486" y="260" type="line"/>
      <point x="492" y="302" type="line"/>
      <point x="378" y="643" type="line"/>
      <point x="368" y="648" type="line"/>
    </contour>
    <contour>
      <point x="388" y="280" type="line"/>
      <point x="242" y="20" type="line"/>
      <point x="235" y="20" type="line"/>
      <point x="147" y="274" type="line"/>
      <point x="293" y="539" type="line"/>
      <point x="300" y="539" type="line"/>
    </contour>
  </outline>
</glyph>
<glyph name="I.ss01" format="1">
  <advance width="284"/>
  <outline>
    <contour>
      <point x="98" y="507" type="line"/>
      <point x="61" y="149" type="line"/>
      <point x="36" y="0" type="line"/>
      <point x="183" y="0" type="line"/>
      <point x="197" y="164" type="line"/>
      <point x="247" y="507" type="line"/>
    </contour>
    <contour>
      <point x="-120" y="54" type="line"/>
      <point x="-126" y="0" type="line"/>
      <point x="354" y="0" type="line"/>
      <point x="360" y="54" type="line"/>
    </contour>
    <contour>
      <point x="-64" y="508" type="line"/>
      <point x="-70" y="453" type="line"/>
      <point x="410" y="453" type="line"/>
      <point x="416" y="508" type="line"/>
    </contour>
    <contour>
      <point x="193" y="8" type="move" name="ogonek"/>
    </contour>
    <contour>
      <point x="177" y="507" type="move" name="top"/>
    </contour>
  </outline>
</glyph>
<glyph name="L.ss01" format="1">
  <advance width="385"/>
  <outline>
    <contour>
      <point x="97" y="505" type="line"/>
      <point x="60" y="155" type="line"/>
      <point x="35" y="5" type="line"/>
      <point x="333" y="5" type="line"/>
      <point x="351" y="123" type="line"/>
      <point x="299" y="123" type="line"/>
      <point x="285" y="123" type="line"/>
      <point x="189" y="123" type="line"/>
      <point x="195" y="170" type="line"/>
      <point x="243" y="505" type="line"/>
    </contour>
    <contour>
      <point x="-121" y="54" type="line"/>
      <point x="-127" y="0" type="line"/>
      <point x="456" y="0" type="line"/>
      <point x="462" y="54" type="line"/>
    </contour>
    <contour>
      <point x="-65" y="508" type="line"/>
      <point x="-71" y="453" type="line"/>
      <point x="512" y="453" type="line"/>
      <point x="518" y="508" type="line"/>
    </contour>
  </outline>
</glyph>
<glyph name="brevehookabove" format="1">
  <advance width="390"/>
  <outline>
    <contour>
      <point x="355" y="683" type="line"/>
      <point x="332" y="649"/>
      <point x="293" y="629"/>
      <point x="246" y="629" type="curve" smooth="yes"/>
      <point x="199" y="629"/>
      <point x="162" y="647"/>
      <point x="146" y="683" type="curve"/>
      <point x="124" y="683" type="line"/>
      <point x="84" y="634" type="line"/>
      <point x="103" y="562"/>
      <point x="159" y="522"/>
      <point x="239" y="522" type="curve" smooth="yes"/>
      <point x="315" y="522"/>
      <point x="371" y="562"/>
      <point x="404" y="634" type="curve" smooth="yes"/>
      <point x="376" y="683" type="line"/>
    </contour>
    <contour>
      <point x="199" y="898"/>
      <point x="157" y="877"/>
      <point x="126" y="844" type="curve"/>
      <point x="151" y="804" type="line"/>
      <point x="171" y="820"/>
      <point x="197" y="829"/>
      <point x="216" y="829" type="curve" smooth="yes"/>
      <point x="233" y="829"/>
      <point x="245" y="822"/>
      <point x="245" y="806" type="curve" smooth="yes"/>
      <point x="245" y="787"/>
      <point x="226" y="758"/>
      <point x="193" y="734" type="curve"/>
      <point x="239" y="663" type="line"/>
      <point x="293" y="695" type="line"/>
      <point x="268" y="735" type="line"/>
      <point x="311" y="772"/>
      <point x="326" y="793"/>
      <point x="326" y="821" type="curve" smooth="yes"/>
      <point x="326" y="867"/>
      <point x="288" y="898"/>
      <point x="239" y="898" type="curve" smooth="yes"/>
    </contour>
    <contour>
      <point x="221" y="467" type="move" name="_top"/>
    </contour>
  </outline>
</glyph>
<glyph name="c.sups" format="1">
  <advance width="253"/>
  <outline>
    <contour>
      <point x="231" y="648" type="line"/>
      <point x="102" y="648"/>
      <point x="47" y="554"/>
      <point x="47" y="445" type="curve" smooth="yes"/>
      <point x="47" y="366"/>
      <point x="76" y="330"/>
      <point x="149" y="320" type="curve"/>
      <point x="162" y="320" type="line"/>
      <point x="210" y="334"/>
      <point x="241" y="357"/>
      <point x="271" y="408" type="curve"/>
      <point x="239" y="446" type="line"/>
      <point x="227" y="446" type="line"/>
      <point x="205" y="409"/>
      <point x="189" y="397"/>
      <point x="172" y="397" type="curve" smooth="yes"/>
      <point x="148" y="397"/>
      <point x="138" y="416"/>
      <point x="138" y="462" type="curve" smooth="yes"/>
      <point x="138" y="538"/>
      <point x="159" y="578"/>
      <point x="203" y="578" type="curve"/>
      <point x="219" y="578"/>
      <point x="229" y="570"/>
      <point x="244" y="554" type="curve"/>
      <point x="265" y="555" type="line"/>
      <point x="291" y="622" type="line"/>
      <point x="287" y="632" type="line"/>
      <point x="231" y="648" type="line"/>
    </contour>
    <contour>
      <point x="226" y="0" type="move" name="bottom"/>
    </contour>
    <contour>
      <point x="231" y="468" type="move" name="top"/>
    </contour>
  </outline>
</glyph>
<glyph name="caron.alt" format="1">
  <advance width="390"/>
  <outline>
    <contour>
      <point x="197" y="727" type="line"/>
      <point x="175" y="511" type="line"/>
      <point x="184" y="502" type="line"/>
      <point x="253" y="513" type="line"/>
      <point x="315" y="724" type="line"/>
      <point x="308" y="733" type="line"/>
    </contour>
    <contour>
      <point x="245" y="467" type="move" name="_topright"/>
    </contour>
  </outline>
</glyph>
<glyph name="caron.cap" format="1">
  <advance width="390"/>
  <outline>
    <contour>
      <point x="365" y="709" type="line"/>
      <point x="324" y="689"/>
      <point x="283" y="668"/>
      <point x="243" y="647" type="curve"/>
      <point x="208" y="668"/>
      <point x="175" y="689"/>
      <point x="140" y="709" type="curve"/>
      <point x="125" y="709" type="line"/>
      <point x="90" y="648" type="line"/>
      <point x="139" y="613"/>
      <point x="184" y="577"/>
      <point x="224" y="539" type="curve"/>
      <point x="254" y="539" type="line"/>
      <point x="298" y="577"/>
      <point x="346" y="613"/>
      <point x="401" y="648" type="curve"/>
      <point x="380" y="709" type="line"/>
    </contour>
    <contour>
      <point x="227" y="467" type="move" name="_top"/>
    </contour>
  </outline>
</glyph>
<glyph name="circumflex.cap" format="1">
  <advance width="390"/>
  <outline>
    <contour>
      <point x="121" y="547" type="line"/>
      <point x="161" y="568"/>
      <point x="203" y="588"/>
      <point x="243" y="609" type="curve"/>
      <point x="278" y="588"/>
      <point x="310" y="568"/>
      <point x="346" y="547" type="curve"/>
      <point x="361" y="547" type="line"/>
      <point x="396" y="608" type="line"/>
      <point x="346" y="644"/>
      <point x="301" y="680"/>
      <point x="262" y="717" type="curve"/>
      <point x="232" y="717" type="line"/>
      <point x="188" y="680"/>
      <point x="139" y="644"/>
      <point x="85" y="608" type="curve"/>
      <point x="106" y="547" type="line"/>
    </contour>
    <contour>
      <point x="221" y="467" type="move" name="_top"/>
    </contour>
  </outline>
</glyph>
<glyph name="circumflexacute" format="1">
  <advance width="390"/>
  <outline>
    <contour>
      <point x="230" y="698" type="line"/>
      <point x="186" y="661"/>
      <point x="137" y="625"/>
      <point x="83" y="589" type="curve"/>
      <point x="104" y="528" type="line"/>
      <point x="119" y="528" type="line"/>
      <point x="159" y="549"/>
      <point x="201" y="569"/>
      <point x="241" y="590" type="curve"/>
      <point x="276" y="569"/>
      <point x="308" y="549"/>
      <point x="344" y="528" type="curve"/>
      <point x="359" y="528" type="line"/>
      <point x="394" y="589" type="line"/>
      <point x="344" y="625"/>
      <point x="299" y="661"/>
      <point x="260" y="698" type="curve"/>
    </contour>
    <contour>
      <point x="371" y="833" type="line"/>
      <point x="301" y="700" type="line"/>
      <point x="353" y="661" type="line"/>
      <point x="363" y="661" type="line"/>
      <point x="463" y="793" type="line"/>
      <point x="459" y="804" type="line"/>
      <point x="382" y="838" type="line"/>
    </contour>
    <contour>
      <point x="221" y="467" type="move" name="_top"/>
    </contour>
  </outline>
</glyph>
<glyph name="circumflexgrave" format="1">
  <advance width="390"/>
  <outline>
    <contour>
      <point x="228" y="697" type="line"/>
      <point x="184" y="660"/>
      <point x="135" y="624"/>
      <point x="81" y="588" type="curve"/>
      <point x="102" y="527" type="line"/>
      <point x="117" y="527" type="line"/>
      <point x="157" y="548"/>
      <point x="199" y="568"/>
      <point x="239" y="589" type="curve"/>
      <point x="274" y="568"/>
      <point x="306" y="548"/>
      <point x="342" y="527" type="curve"/>
      <point x="357" y="527" type="line"/>
      <point x="392" y="588" type="line"/>
      <point x="342" y="624"/>
      <point x="297" y="660"/>
      <point x="258" y="697" type="curve"/>
    </contour>
    <contour>
      <point x="251" y="804" type="line"/>
      <point x="247" y="793" type="line"/>
      <point x="347" y="661" type="line"/>
      <point x="357" y="661" type="line"/>
      <point x="409" y="700" type="line"/>
      <point x="339" y="833" type="line"/>
      <point x="329" y="838" type="line"/>
    </contour>
    <contour>
      <point x="221" y="467" type="move" name="_top"/>
    </contour>
  </outline>
</glyph>
<glyph name="d.sups" format="1">
  <advance width="327"/>
  <outline>
    <contour>
      <point x="215" y="646" type="line"/>
      <point x="210" y="646" type="line"/>
      <point x="97" y="618"/>
      <point x="44" y="519"/>
      <point x="44" y="427" type="curve" smooth="yes"/>
      <point x="44" y="373"/>
      <point x="61" y="337"/>
      <point x="124" y="319" type="curve"/>
      <point x="137" y="319" type="line"/>
      <point x="166" y="349"/>
      <point x="192" y="388"/>
      <point x="215" y="430" type="curve"/>
      <point x="225" y="430" type="line"/>
      <point x="249" y="564" type="line"/>
      <point x="203" y="458"/>
      <point x="164" y="403"/>
      <point x="149" y="403" type="curve" smooth="yes"/>
      <point x="141" y="403"/>
      <point x="131" y="420"/>
      <point x="131" y="463" type="curve" smooth="yes"/>
      <point x="131" y="531"/>
      <point x="154" y="579"/>
      <point x="196" y="579" type="curve"/>
      <point x="271" y="564" type="line"/>
      <point x="320" y="630" type="line"/>
      <point x="215" y="646" type="line"/>
    </contour>
    <contour>
      <point x="360" y="812" type="line"/>
      <point x="264" y="806" type="line"/>
      <point x="262" y="733" type="line"/>
      <point x="207" y="322" type="line"/>
      <point x="302" y="328" type="line"/>
      <point x="306" y="402" type="line"/>
      <point x="360" y="812" type="line"/>
    </contour>
    <contour>
      <point x="381" y="0" type="move" name="bottom"/>
    </contour>
    <contour>
      <point x="471" y="234" type="move" name="center"/>
    </contour>
    <contour>
      <point x="382" y="468" type="move" name="top"/>
    </contour>
    <contour>
      <point x="498" y="468" type="move" name="topright"/>
    </contour>
  </outline>
</glyph>
<glyph name="dieresis.i" format="1">
  <advance width="390"/>
  <outline>
    <contour>
      <point x="282" y="693"/>
      <point x="254" y="664"/>
      <point x="254" y="618" type="curve" smooth="yes"/>
      <point x="254" y="574"/>
      <point x="278" y="549"/>
      <point x="323" y="549" type="curve" smooth="yes"/>
      <point x="367" y="549"/>
      <point x="395" y="578"/>
      <point x="395" y="624" type="curve" smooth="yes"/>
      <point x="395" y="668"/>
      <point x="370" y="693"/>
      <point x="328" y="693" type="curve" smooth="yes"/>
    </contour>
    <contour>
      <point x="118" y="693"/>
      <point x="90" y="664"/>
      <point x="90" y="618" type="curve" smooth="yes"/>
      <point x="90" y="574"/>
      <point x="114" y="549"/>
      <point x="159" y="549" type="curve" smooth="yes"/>
      <point x="203" y="549"/>
      <point x="231" y="578"/>
      <point x="231" y="624" type="curve" smooth="yes"/>
      <point x="231" y="668"/>
      <point x="206" y="693"/>
      <point x="164" y="693" type="curve" smooth="yes"/>
    </contour>
    <contour>
      <point x="224" y="467" type="move" name="_top"/>
    </contour>
  </outline>
</glyph>
<glyph name="dieresisgrave" format="1">
  <advance width="390"/>
  <outline>
    <contour>
      <point x="161" y="862" type="line"/>
      <point x="126" y="764" type="line"/>
      <point x="133" y="751" type="line"/>
      <point x="213" y="737"/>
      <point x="286" y="726"/>
      <point x="360" y="717" type="curve"/>
      <point x="374" y="723" type="line"/>
      <point x="396" y="791" type="line"/>
      <point x="318" y="815"/>
      <point x="247" y="839"/>
      <point x="175" y="868" type="curve"/>
    </contour>
    <contour>
      <point x="108" y="673"/>
      <point x="79" y="643"/>
      <point x="79" y="598" type="curve" smooth="yes"/>
      <point x="79" y="555"/>
      <point x="102" y="531"/>
      <point x="145" y="531" type="curve" smooth="yes"/>
      <point x="190" y="531"/>
      <point x="219" y="561"/>
      <point x="219" y="608" type="curve" smooth="yes"/>
      <point x="219" y="649"/>
      <point x="195" y="673"/>
      <point x="154" y="673" type="curve" smooth="yes"/>
    </contour>
    <contour>
      <point x="288" y="673"/>
      <point x="259" y="643"/>
      <point x="259" y="598" type="curve" smooth="yes"/>
      <point x="259" y="555"/>
      <point x="282" y="531"/>
      <point x="325" y="531" type="curve" smooth="yes"/>
      <point x="370" y="531"/>
      <point x="399" y="561"/>
      <point x="399" y="608" type="curve" smooth="yes"/>
      <point x="399" y="649"/>
      <point x="375" y="673"/>
      <point x="334" y="673" type="curve" smooth="yes"/>
    </contour>
    <contour>
      <point x="227" y="467" type="move" name="_top"/>
    </contour>
  </outline>
</glyph>
<glyph name="dieresismacron" format="1">
  <advance width="390"/>
  <outline>
    <contour>
      <point x="111" y="824" type="line"/>
      <point x="103" y="738" type="line"/>
      <point x="114" y="727" type="line"/>
      <point x="401" y="727" type="line"/>
      <point x="409" y="813" type="line"/>
      <point x="399" y="824" type="line"/>
    </contour>
    <contour>
      <point x="113" y="673"/>
      <point x="85" y="645"/>
      <point x="85" y="600" type="curve" smooth="yes"/>
      <point x="85" y="556"/>
      <point x="109" y="531"/>
      <point x="152" y="531" type="curve" smooth="yes"/>
      <point x="197" y="531"/>
      <point x="224" y="560"/>
      <point x="224" y="606" type="curve" smooth="yes"/>
      <point x="224" y="648"/>
      <point x="200" y="673"/>
      <point x="158" y="673" type="curve" smooth="yes"/>
    </contour>
    <contour>
      <point x="294" y="673"/>
      <point x="266" y="645"/>
      <point x="266" y="600" type="curve" smooth="yes"/>
      <point x="266" y="556"/>
      <point x="290" y="531"/>
      <point x="333" y="531" type="curve" smooth="yes"/>
      <point x="378" y="531"/>
      <point x="405" y="560"/>
      <point x="405" y="606" type="curve" smooth="yes"/>
      <point x="405" y="648"/>
      <point x="381" y="673"/>
      <point x="339" y="673" type="curve" smooth="yes"/>
    </contour>
    <contour>
      <point x="221" y="467" type="move" name="_top"/>
    </contour>
  </outline>
</glyph>
<glyph name="e.sups" format="1">
  <advance width="282"/>
  <outline>
    <contour>
      <point x="120" y="442" type="line"/>
      <point x="255" y="476"/>
      <point x="307" y="517"/>
      <point x="307" y="573" type="curve" smooth="yes"/>
      <point x="307" y="616"/>
      <point x="277" y="641"/>
      <point x="232" y="649" type="curve"/>
      <point x="223" y="650" type="line"/>
      <point x="116" y="644"/>
      <point x="48" y="566"/>
      <point x="47" y="447" type="curve"/>
      <point x="47" y="374"/>
      <point x="79" y="328"/>
      <point x="162" y="319" type="curve"/>
      <point x="171" y="319" type="line"/>
      <point x="216" y="330"/>
      <point x="258" y="356"/>
      <point x="292" y="400" type="curve"/>
      <point x="261" y="437" type="line"/>
      <point x="249" y="439" type="line"/>
      <point x="228" y="405"/>
      <point x="205" y="389"/>
      <point x="178" y="389" type="curve" smooth="yes"/>
      <point x="149" y="389"/>
      <point x="136" y="410"/>
      <point x="136" y="468" type="curve" smooth="yes"/>
      <point x="136" y="546"/>
      <point x="160" y="590"/>
      <point x="199" y="590" type="curve" smooth="yes"/>
      <point x="216" y="590"/>
      <point x="224" y="582"/>
      <point x="224" y="567" type="curve" smooth="yes"/>
      <point x="224" y="534"/>
      <point x="190" y="513"/>
      <point x="120" y="494" type="curve"/>
    </contour>
    <contour>
      <point x="235" y="0" type="move" name="bottom"/>
    </contour>
    <contour>
      <point x="400" y="10" type="move" name="ogonek"/>
    </contour>
    <contour>
      <point x="245" y="468" type="move" name="top"/>
    </contour>
  </outline>
</glyph>
<glyph name="four.dnom" format="1">
  <advance width="373"/>
  <outline>
    <contour>
      <point x="203" y="388" type="line"/>
      <point x="8" y="161" type="line"/>
      <point x="0" y="89" type="line"/>
      <point x="6" y="80" type="line"/>
      <point x="78" y="82" type="line"/>
      <point x="239" y="82" type="line"/>
      <point x="325" y="80" type="line"/>
      <point x="340" y="159" type="line"/>
      <point x="335" y="169" type="line"/>
      <point x="112" y="169" type="line"/>
      <point x="192" y="263" type="line"/>
      <point x="199" y="263" type="line"/>
      <point x="185" y="147" type="line"/>
      <point x="163" y="2" type="line"/>
      <point x="169" y="-5" type="line"/>
      <point x="263" y="0" type="line"/>
      <point x="271" y="8" type="line"/>
      <point x="278" y="125" type="line"/>
      <point x="313" y="388" type="line"/>
    </contour>
  </outline>
</glyph>
<glyph name="four.tosf" format="1">
  <advance width="475"/>
  <outline>
    <contour>
      <point x="277" y="508" type="line"/>
      <point x="-1" y="155" type="line"/>
      <point x="-12" y="61" type="line"/>
      <point x="-4" y="49" type="line"/>
      <point x="87" y="52" type="line"/>
      <point x="317" y="52" type="line"/>
      <point x="430" y="49" type="line"/>
      <point x="450" y="151" type="line"/>
      <point x="443" y="164" type="line"/>
      <point x="127" y="164" type="line"/>
      <point x="265" y="344" type="line"/>
      <point x="274" y="344" type="line"/>
      <point x="249" y="135" type="line"/>
      <point x="215" y="-86" type="line"/>
      <point x="221" y="-95" type="line"/>
      <point x="335" y="-88" type="line"/>
      <point x="345" y="-78" type="line"/>
      <point x="359" y="108" type="line"/>
      <point x="412" y="508" type="line"/>
    </contour>
  </outline>
</glyph>
<glyph name="i.sups" format="1">
  <advance width="168"/>
  <outline>
    <contour>
      <point x="178" y="645" type="line"/>
      <point x="84" y="639" type="line"/>
      <point x="80" y="567" type="line"/>
      <point x="48" y="322" type="line"/>
      <point x="143" y="328" type="line"/>
      <point x="147" y="402" type="line"/>
      <point x="178" y="645" type="line"/>
    </contour>
    <contour>
      <point x="117" y="810"/>
      <point x="94" y="785"/>
      <point x="94" y="747" type="curve" smooth="yes"/>
      <point x="94" y="722"/>
      <point x="112" y="705"/>
      <point x="142" y="705" type="curve" smooth="yes"/>
      <point x="178" y="705"/>
      <point x="200" y="730"/>
      <point x="200" y="767" type="curve" smooth="yes"/>
      <point x="200" y="793"/>
      <point x="183" y="810"/>
      <point x="153" y="810" type="curve" smooth="yes"/>
    </contour>
    <contour>
      <point x="120" y="300" type="move" name="_top"/>
    </contour>
    <contour>
      <point x="173" y="6" type="move" name="ogonek"/>
    </contour>
    <contour>
      <point x="120" y="300" type="move" name="top"/>
    </contour>
  </outline>
</glyph>
<glyph name="l.sups" format="1">
  <advance width="167"/>
  <outline>
    <contour>
      <point x="199" y="812" type="line"/>
      <point x="104" y="806" type="line"/>
      <point x="101" y="733" type="line"/>
      <point x="46" y="322" type="line"/>
      <point x="141" y="328" type="line"/>
      <point x="145" y="402" type="line"/>
      <point x="199" y="812" type="line"/>
    </contour>
    <contour>
      <point x="100" y="0" type="move" name="bottom"/>
    </contour>
    <contour>
      <point x="100" y="300" type="move" name="top"/>
    </contour>
    <contour>
      <point x="177" y="300" type="move" name="topright"/>
    </contour>
  </outline>
</glyph>
<glyph name="n.sups" format="1">
  <advance width="352"/>
  <outline>
    <contour>
      <point x="176" y="393" type="line"/>
      <point x="176" y="393" type="line"/>
    </contour>
    <contour>
      <point x="85" y="639" type="line"/>
      <point x="82" y="567" type="line"/>
      <point x="50" y="322" type="line"/>
      <point x="145" y="328" type="line"/>
      <point x="148" y="402" type="line"/>
      <point x="180" y="645" type="line"/>
      <point x="85" y="639" type="line"/>
    </contour>
    <contour>
      <point x="269" y="645" type="line"/>
      <point x="236" y="618"/>
      <point x="207" y="579"/>
      <point x="174" y="530" type="curve"/>
      <point x="162" y="530" type="line"/>
      <point x="142" y="420" type="line"/>
      <point x="190" y="509"/>
      <point x="227" y="551"/>
      <point x="244" y="551" type="curve" smooth="yes"/>
      <point x="252" y="551"/>
      <point x="259" y="543"/>
      <point x="259" y="529" type="curve"/>
      <point x="258" y="521" type="line"/>
      <point x="225" y="322" type="line"/>
      <point x="323" y="328" type="line"/>
      <point x="326" y="403" type="line"/>
      <point x="353" y="566" type="line"/>
      <point x="354" y="575" type="line"/>
      <point x="355" y="610"/>
      <point x="319" y="638"/>
      <point x="277" y="646" type="curve"/>
    </contour>
    <contour>
      <point x="193" y="0" type="move" name="bottom"/>
    </contour>
    <contour>
      <point x="174" y="6" type="move" name="ogonek"/>
    </contour>
    <contour>
      <point x="219" y="300" type="move" name="top"/>
    </contour>
  </outline>
</glyph>
<glyph name="nine.tf" format="1">
  <advance width="475"/>
  <outline>
    <contour>
      <point x="140" y="-11" type="line"/>
      <point x="362" y="84"/>
      <point x="471" y="241"/>
      <point x="471" y="395" type="curve" smooth="yes"/>
      <point x="471" y="518"/>
      <point x="400" y="597"/>
      <point x="271" y="597" type="curve" smooth="yes"/>
      <point x="114" y="597"/>
      <point x="47" y="479"/>
      <point x="47" y="386" type="curve" smooth="yes"/>
      <point x="47" y="299"/>
      <point x="106" y="219"/>
      <point x="204" y="219" type="curve" smooth="yes"/>
      <point x="232" y="219"/>
      <point x="256" y="228"/>
      <point x="282" y="242" type="curve"/>
      <point x="305" y="210" type="line"/>
      <point x="343" y="362" type="line"/>
      <point x="311" y="339"/>
      <point x="278" y="327"/>
      <point x="251" y="327" type="curve" smooth="yes"/>
      <point x="208" y="327"/>
      <point x="188" y="352"/>
      <point x="188" y="400" type="curve" smooth="yes"/>
      <point x="188" y="450"/>
      <point x="209" y="495"/>
      <point x="265" y="495" type="curve" smooth="yes"/>
      <point x="318" y="495"/>
      <point x="332" y="458"/>
      <point x="332" y="394" type="curve" smooth="yes"/>
      <point x="332" y="254"/>
      <point x="268" y="143"/>
      <point x="40" y="73" type="curve"/>
      <point x="38" y="58" type="line"/>
      <point x="133" y="-11" type="line"/>
    </contour>
  </outline>
</glyph>
<glyph name="puso.cap" format="1">
  <advance width="161"/>
  <outline>
    <contour>
      <point x="62" y="606" type="line"/>
      <point x="38" y="293" type="line"/>
      <point x="49" y="281" type="line"/>
      <point x="122" y="296" type="line"/>
      <point x="191" y="603" type="line"/>
      <point x="183" y="616" type="line"/>
    </contour>
    <contour>
      <point x="80" y="153" type="move"/>
    </contour>
  </outline>
</glyph>
<glyph name="puso" format="1">
  <advance width="156"/>
  <outline>
    <contour>
      <point x="52" y="534" type="line"/>
      <point x="28" y="235" type="line"/>
      <point x="39" y="223" type="line"/>
      <point x="112" y="237" type="line"/>
      <point x="181" y="530" type="line"/>
      <point x="173" y="543" type="line"/>
    </contour>
    <contour>
      <point x="73" y="293" type="move"/>
    </contour>
  </outline>
</glyph>
<glyph name="r.sups" format="1">
  <advance width="247"/>
  <outline>
    <contour>
      <point x="274" y="644" type="line"/>
      <point x="239" y="629"/>
      <point x="208" y="591"/>
      <point x="176" y="533" type="curve"/>
      <point x="155" y="533" type="line"/>
      <point x="142" y="431" type="line"/>
      <point x="185" y="499"/>
      <point x="216" y="532"/>
      <point x="249" y="532" type="curve"/>
      <point x="268" y="529" type="line"/>
      <point x="277" y="532" type="line"/>
      <point x="291" y="641" type="line"/>
      <point x="274" y="644" type="line"/>
    </contour>
    <contour>
      <point x="180" y="645" type="line"/>
      <point x="85" y="639" type="line"/>
      <point x="82" y="567" type="line"/>
      <point x="49" y="322" type="line"/>
      <point x="145" y="328" type="line"/>
      <point x="149" y="402" type="line"/>
      <point x="180" y="645" type="line"/>
    </contour>
    <contour>
      <point x="174" y="6" type="move" name="bottom"/>
    </contour>
    <contour>
      <point x="120" y="300" type="move" name="ogonek"/>
    </contour>
    <contour>
      <point x="118" y="288" type="move" name="top"/>
    </contour>
  </outline>
</glyph>
<glyph name="ringacute" format="1">
  <advance width="390"/>
  <outline>
    <contour>
      <point x="175" y="715"/>
      <point x="139" y="678"/>
      <point x="139" y="613" type="curve" smooth="yes"/>
      <point x="139" y="549"/>
      <point x="175" y="515"/>
      <point x="237" y="515" type="curve" smooth="yes"/>
      <point x="302" y="515"/>
      <point x="341" y="552"/>
      <point x="341" y="619" type="curve" smooth="yes"/>
      <point x="341" y="680"/>
      <point x="308" y="715"/>
      <point x="243" y="715" type="curve" smooth="yes"/>
    </contour>
    <contour>
      <point x="267" y="650"/>
      <point x="279" y="638"/>
      <point x="279" y="613" type="curve" smooth="yes"/>
      <point x="279" y="588"/>
      <point x="267" y="578"/>
      <point x="241" y="578" type="curve" smooth="yes"/>
      <point x="215" y="578"/>
      <point x="202" y="589"/>
      <point x="202" y="616" type="curve" smooth="yes"/>
      <point x="202" y="639"/>
      <point x="213" y="650"/>
      <point x="240" y="650" type="curve" smooth="yes"/>
    </contour>
    <contour>
      <point x="284" y="853"/>
      <point x="213" y="827"/>
      <point x="132" y="800" type="curve"/>
      <point x="147" y="733" type="line"/>
      <point x="161" y="727" type="line"/>
      <point x="236" y="739"/>
      <point x="309" y="752"/>
      <point x="392" y="769" type="curve"/>
      <point x="399" y="781" type="line"/>
      <point x="374" y="879" type="line"/>
      <point x="360" y="884" type="line"/>
    </contour>
    <contour>
      <point x="221" y="467" type="move" name="_top"/>
    </contour>
  </outline>
</glyph>
<glyph name="s.sups" format="1">
  <advance width="255"/>
  <outline>
    <contour>
      <point x="126" y="648"/>
      <point x="61" y="606"/>
      <point x="60" y="536" type="curve" smooth="yes"/>
      <point x="61" y="461"/>
      <point x="171" y="446"/>
      <point x="175" y="407" type="curve" smooth="yes"/>
      <point x="176" y="392"/>
      <point x="163" y="376"/>
      <point x="141" y="376" type="curve" smooth="yes"/>
      <point x="117" y="376"/>
      <point x="86" y="392"/>
      <point x="62" y="418" type="curve"/>
      <point x="52" y="412" type="line"/>
      <point x="31" y="337" type="line"/>
      <point x="58" y="327"/>
      <point x="86" y="322"/>
      <point x="117" y="319" type="curve"/>
      <point x="198" y="319"/>
      <point x="257" y="364"/>
      <point x="257" y="425" type="curve" smooth="yes"/>
      <point x="257" y="511"/>
      <point x="145" y="519"/>
      <point x="145" y="559" type="curve" smooth="yes"/>
      <point x="145" y="574"/>
      <point x="156" y="588"/>
      <point x="176" y="588" type="curve" smooth="yes"/>
      <point x="193" y="588"/>
      <point x="219" y="577"/>
      <point x="242" y="556" type="curve"/>
      <point x="256" y="561" type="line"/>
      <point x="276" y="631" type="line"/>
      <point x="252" y="639"/>
      <point x="228" y="645"/>
      <point x="202" y="647" type="curve"/>
    </contour>
    <contour>
      <point x="144" y="0" type="move" name="bottom"/>
    </contour>
    <contour>
      <point x="146" y="298" type="move" name="top"/>
    </contour>
  </outline>
</glyph>
<glyph name="six.tf" format="1">
  <advance width="475"/>
  <outline>
    <contour>
      <point x="352" y="597" type="line"/>
      <point x="131" y="502"/>
      <point x="21" y="345"/>
      <point x="21" y="191" type="curve" smooth="yes"/>
      <point x="21" y="68"/>
      <point x="92" y="-11"/>
      <point x="221" y="-11" type="curve" smooth="yes"/>
      <point x="379" y="-11"/>
      <point x="445" y="107"/>
      <point x="445" y="200" type="curve" smooth="yes"/>
      <point x="445" y="287"/>
      <point x="387" y="367"/>
      <point x="289" y="367" type="curve" smooth="yes"/>
      <point x="260" y="367"/>
      <point x="236" y="358"/>
      <point x="210" y="344" type="curve"/>
      <point x="187" y="376" type="line"/>
      <point x="150" y="224" type="line"/>
      <point x="181" y="247"/>
      <point x="214" y="259"/>
      <point x="241" y="259" type="curve" smooth="yes"/>
      <point x="285" y="259"/>
      <point x="304" y="234"/>
      <point x="304" y="186" type="curve" smooth="yes"/>
      <point x="304" y="136"/>
      <point x="284" y="91"/>
      <point x="227" y="91" type="curve" smooth="yes"/>
      <point x="174" y="91"/>
      <point x="160" y="128"/>
      <point x="160" y="192" type="curve" smooth="yes"/>
      <point x="160" y="332"/>
      <point x="224" y="443"/>
      <point x="453" y="513" type="curve"/>
      <point x="454" y="528" type="line"/>
      <point x="360" y="597" type="line"/>
    </contour>
  </outline>
</glyph>
<glyph name="square1" format="1">
  <advance width="465"/>
  <outline>
    <contour>
      <point x="0" y="465" type="line"/>
      <point x="0" y="0" type="line"/>
      <point x="465" y="0" type="line"/>
      <point x="465" y="465" type="line"/>
    </contour>
  </outline>
</glyph>
<glyph name="v.sups" format="1">
  <advance width="310"/>
  <outline>
    <contour>
      <point x="235" y="630" type="line"/>
      <point x="242" y="617"/>
      <point x="246" y="604"/>
      <point x="246" y="590" type="curve" smooth="yes"/>
      <point x="246" y="569"/>
      <point x="239" y="547"/>
      <point x="226" y="519" type="curve" smooth="yes"/>
      <point x="178" y="420" type="line"/>
      <point x="170" y="420" type="line"/>
      <point x="160" y="587" type="line"/>
      <point x="159" y="645" type="line"/>
      <point x="64" y="640" type="line"/>
      <point x="103" y="325" type="line"/>
      <point x="210" y="325" type="line"/>
      <point x="306" y="496" type="line" smooth="yes"/>
      <point x="326" y="533"/>
      <point x="337" y="564"/>
      <point x="337" y="594" type="curve" smooth="yes"/>
      <point x="337" y="612"/>
      <point x="332" y="629"/>
      <point x="324" y="647" type="curve"/>
    </contour>
  </outline>
</glyph>
<glyph name="z.sups" format="1">
  <advance width="300"/>
  <outline>
    <contour>
      <point x="292" y="656" type="line"/>
      <point x="268" y="642" type="line"/>
      <point x="147" y="645" type="line"/>
      <point x="85" y="650" type="line"/>
      <point x="77" y="643" type="line"/>
      <point x="61" y="565" type="line"/>
      <point x="68" y="558" type="line"/>
      <point x="115" y="565" type="line"/>
      <point x="185" y="567" type="line"/>
      <point x="14" y="346" type="line"/>
      <point x="42" y="321" type="line"/>
      <point x="54" y="321" type="line"/>
      <point x="70" y="335"/>
      <point x="80" y="341"/>
      <point x="96" y="341" type="curve" smooth="yes"/>
      <point x="127" y="341"/>
      <point x="163" y="318"/>
      <point x="207" y="318" type="curve" smooth="yes"/>
      <point x="264" y="318"/>
      <point x="301" y="354"/>
      <point x="305" y="456" type="curve"/>
      <point x="266" y="467" type="line"/>
      <point x="254" y="464" type="line"/>
      <point x="249" y="416"/>
      <point x="236" y="402"/>
      <point x="205" y="402" type="curve" smooth="yes"/>
      <point x="196" y="402"/>
      <point x="170" y="409"/>
      <point x="162" y="409" type="curve"/>
      <point x="144" y="405" type="line"/>
      <point x="320" y="629" type="line"/>
      <point x="292" y="656" type="line"/>
    </contour>
    <contour>
      <point x="167" y="303" type="move" name="top"/>
    </contour>
  </outline>
</glyph>
<glyph name="zero.tosf" format="1">
  <advance width="479"/>
  <outline>
    <contour>
      <point x="119" y="516"/>
      <point x="24" y="390"/>
      <point x="24" y="206" type="curve" smooth="yes"/>
      <point x="24" y="65"/>
      <point x="89" y="-10"/>
      <point x="206" y="-10" type="curve" smooth="yes"/>
      <point x="362" y="-10"/>
      <point x="458" y="115"/>
      <point x="458" y="301" type="curve" smooth="yes"/>
      <point x="458" y="444"/>
      <point x="393" y="516"/>
      <point x="278" y="516" type="curve" smooth="yes"/>
    </contour>
    <contour>
      <point x="313" y="375"/>
      <point x="337" y="343"/>
      <point x="337" y="271" type="curve" smooth="yes"/>
      <point x="337" y="176"/>
      <point x="303" y="124"/>
      <point x="227" y="124" type="curve" smooth="yes"/>
      <point x="166" y="124"/>
      <point x="144" y="158"/>
      <point x="144" y="227" type="curve" smooth="yes"/>
      <point x="144" y="323"/>
      <point x="173" y="375"/>
      <point x="253" y="375" type="curve" smooth="yes"/>
    </contour>
  </outline>
</glyph>
